v -3.4 -0.5 2.65
v -3.4 -0.5 3.1
v -3.4 0.1 2.65
v -3.4 0.1 3.1
v -3.4 0.1 2.65
v -3.6 0.1 2.65
v -3.4 -0.5 2.65
v -3.6 -0.5 2.65
v -3.4 0.1 3.1
v -3.6 0.1 3.1
v -3.4 0.1 2.65
v -3.6 0.1 2.65
v -3.4 -0.5 3.1
v -3.6 -0.5 3.1
v -3.4 0.1 3.1
v -3.6 0.1 3.1
v -3.4 -0.5 2.65
v -3.6 -0.5 2.65
v -3.4 -0.5 3.1
v -3.6 -0.5 3.1
v -3.6 -0.5 2.65
v -3.6 -0.5 3.1
v -3.6 0.1 2.65
v -3.6 0.1 3.1
v -3.4 0.5 -0.4
v -3.4 0.5 2.65
v -3.4 -0.5 -0.4
v -3.4 -0.5 2.65
v -3.4 -0.5 -0.4
v -3.6 -0.5 -0.4
v -3.4 0.5 -0.4
v -3.6 0.5 -0.4
v -3.4 -0.5 2.65
v -3.6 -0.5 2.65
v -3.4 -0.5 -0.4
v -3.6 -0.5 -0.4
v -3.4 0.5 2.65
v -3.6 0.5 2.65
v -3.4 -0.5 2.65
v -3.6 -0.5 2.65
v -3.4 0.5 -0.4
v -3.6 0.5 -0.4
v -3.4 0.5 2.65
v -3.6 0.5 2.65
v -3.6 0.5 -0.4
v -3.6 0.5 2.65
v -3.6 -0.5 -0.4
v -3.6 -0.5 2.65
vt 0.500000 0.000000
vt 0.500000 0.147541
vt 0.598361 0.000000
vt 0.598361 0.147541
vt 0.401639 0.000000
vt 0.401639 0.065574
vt 0.500000 0.000000
vt 0.500000 0.065574
vt 0.426230 0.000000
vt 0.426230 0.065574
vt 0.500000 0.000000
vt 0.500000 0.065574
vt 0.500000 0.000000
vt 0.500000 0.065574
vt 0.598361 0.000000
vt 0.598361 0.065574
vt 0.500000 0.000000
vt 0.500000 0.065574
vt 0.573770 0.000000
vt 0.573770 0.065574
vt 0.500000 0.000000
vt 0.500000 0.147541
vt 0.598361 0.000000
vt 0.598361 0.147541
vt 0.500000 0.000000
vt 0.500000 1.000000
vt 0.663934 0.000000
vt 0.663934 1.000000
vt 0.336066 0.000000
vt 0.336066 0.065574
vt 0.500000 0.000000
vt 0.500000 0.065574
vt 0.000000 0.000000
vt 0.000000 0.065574
vt 0.500000 0.000000
vt 0.500000 0.065574
vt 0.500000 0.000000
vt 0.500000 0.065574
vt 0.663934 0.000000
vt 0.663934 0.065574
vt 0.500000 0.000000
vt 0.500000 0.065574
vt 1.000000 0.000000
vt 1.000000 0.065574
vt 0.500000 0.000000
vt 0.500000 1.000000
vt 0.663934 0.000000
vt 0.663934 1.000000
vn 1 0 0
vn 1 0 0
vn 1 0 0
vn 1 0 0
vn 0 0 -1
vn 0 0 -1
vn 0 0 -1
vn 0 0 -1
vn 0 1 0
vn 0 1 0
vn 0 1 0
vn 0 1 0
vn 0 0 1
vn 0 0 1
vn 0 0 1
vn 0 0 1
vn 0 -1 -4.440892E-16
vn 0 -1 -4.440892E-16
vn 0 -1 -4.440892E-16
vn 0 -1 -4.440892E-16
vn -1 0 0
vn -1 0 0
vn -1 0 0
vn -1 0 0
vn 1 0 0
vn 1 0 0
vn 1 0 0
vn 1 0 0
vn 0 0 -1
vn 0 0 -1
vn 0 0 -1
vn 0 0 -1
vn 0 -1 0
vn 0 -1 0
vn 0 -1 0
vn 0 -1 0
vn 0 0 1
vn 0 0 1
vn 0 0 1
vn 0 0 1
vn 0 1 2.775558E-17
vn 0 1 2.775558E-17
vn 0 1 2.775558E-17
vn 0 1 2.775558E-17
vn -1 0 0
vn -1 0 0
vn -1 0 0
vn -1 0 0

g mesh_concrete_wall0
f 2/2/2 1/1/1 3/3/3
f 6/6/6 5/5/5 7/7/7
f 10/10/10 9/9/9 11/11/11
f 14/14/14 13/13/13 15/15/15
f 18/18/18 17/17/17 19/19/19
f 22/22/22 24/24/24 23/23/23
f 26/26/26 28/28/28 27/27/27
f 30/30/30 32/32/32 31/31/31
f 34/34/34 36/36/36 35/35/35
f 38/38/38 40/40/40 39/39/39
f 42/42/42 44/44/44 43/43/43
f 46/46/46 45/45/45 47/47/47
f 2/2/2 3/3/3 4/4/4
f 6/6/6 7/7/7 8/8/8
f 10/10/10 11/11/11 12/12/12
f 14/14/14 15/15/15 16/16/16
f 18/18/18 19/19/19 20/20/20
f 22/22/22 23/23/23 21/21/21
f 26/26/26 27/27/27 25/25/25
f 30/30/30 31/31/31 29/29/29
f 34/34/34 35/35/35 33/33/33
f 38/38/38 39/39/39 37/37/37
f 42/42/42 43/43/43 41/41/41
f 46/46/46 47/47/47 48/48/48
