v -3.565 0.422393 0.255
v -3.565 -0.424 0.255
v -3.564212 0.4303964 0.255
v -3.561763 0.4384702 0.255
v -3.557785 0.445911 0.255
v -3.557 0.422 0.263
v -3.557 -0.424 0.263
v -3.557 -0.424 0.255
v -3.557 0.422 0.247
v -3.557 -0.424 0.247
v -3.556328 0.4288282 0.263
v -3.556328 0.4288282 0.247
v -3.554336 0.4353939 0.263
v -3.554336 0.4353939 0.247
v -3.552433 0.452433 0.255
v -3.551101 0.441445 0.263
v -3.551101 0.441445 0.247
v -3.549 0.421607 0.255
v -3.549 -0.424 0.255
v -3.548443 0.4272599 0.255
v -3.546909 0.4323176 0.255
v -3.546749 0.4467487 0.263
v -3.546749 0.4467487 0.247
v -3.545911 0.4577854 0.255
v -3.544417 0.4369789 0.255
v -3.541445 0.4511014 0.263
v -3.541445 0.4511014 0.247
v -3.541065 0.4410645 0.255
v -3.53847 0.4617626 0.255
v -3.536979 0.4444175 0.255
v -3.535394 0.4543358 0.263
v -3.535394 0.4543358 0.247
v -3.532318 0.446909 0.255
v -3.530396 0.4642117 0.255
v -3.528828 0.4563275 0.263
v -3.528828 0.4563275 0.247
v -3.52726 0.4484432 0.255
v -3.522393 0.465 0.255
v -3.522 0.457 0.263
v -3.522 0.457 0.247
v -3.521607 0.449 0.255
v -3.478393 0.449 0.255
v -3.478 0.457 0.263
v -3.478 0.457 0.247
v -3.477607 0.465 0.255
v -3.47274 0.4484432 0.255
v -3.471172 0.4563275 0.263
v -3.471172 0.4563275 0.247
v -3.469604 0.4642117 0.255
v -3.467682 0.446909 0.255
v -3.464606 0.4543358 0.263
v -3.464606 0.4543358 0.247
v -3.463021 0.4444175 0.255
v -3.46153 0.4617626 0.255
v -3.458935 0.4410645 0.255
v -3.458555 0.4511014 0.263
v -3.458555 0.4511014 0.247
v -3.455583 0.4369789 0.255
v -3.454089 0.4577854 0.255
v -3.453251 0.4467487 0.263
v -3.453251 0.4467487 0.247
v -3.453091 0.4323176 0.255
v -3.451557 0.4272599 0.255
v -3.451 0.421607 0.255
v -3.451 -0.424 0.255
v -3.448899 0.441445 0.263
v -3.448899 0.441445 0.247
v -3.447567 0.452433 0.255
v -3.445664 0.4353939 0.263
v -3.445664 0.4353939 0.247
v -3.443672 0.4288282 0.263
v -3.443672 0.4288282 0.247
v -3.443 0.422 0.263
v -3.443 -0.424 0.263
v -3.443 -0.424 0.255
v -3.443 0.422 0.247
v -3.443 -0.424 0.247
v -3.442215 0.445911 0.255
v -3.438237 0.4384702 0.255
v -3.435788 0.4303964 0.255
v -3.435 0.422393 0.255
v -3.435 -0.424 0.255
v -3.565 0.422 0.239
v -3.565 -0.424393 0.239
v -3.564212 -0.4323964 0.239
v -3.561763 -0.4404702 0.239
v -3.557785 -0.447911 0.239
v -3.557 0.422 0.247
v -3.557 -0.424 0.247
v -3.557 0.422 0.239
v -3.557 0.422 0.231
v -3.557 -0.424 0.231
v -3.556328 -0.4308282 0.247
v -3.556328 -0.4308282 0.231
v -3.554336 -0.4373939 0.247
v -3.554336 -0.4373939 0.231
v -3.552433 -0.454433 0.239
v -3.551101 -0.443445 0.247
v -3.551101 -0.443445 0.231
v -3.549 0.422 0.239
v -3.549 -0.423607 0.239
v -3.548443 -0.4292599 0.239
v -3.546909 -0.4343176 0.239
v -3.546749 -0.4487487 0.247
v -3.546749 -0.4487487 0.231
v -3.545911 -0.4597854 0.239
v -3.544417 -0.4389789 0.239
v -3.541445 -0.4531014 0.247
v -3.541445 -0.4531014 0.231
v -3.541065 -0.4430645 0.239
v -3.53847 -0.4637626 0.239
v -3.536979 -0.4464175 0.239
v -3.535394 -0.4563358 0.247
v -3.535394 -0.4563358 0.231
v -3.532318 -0.448909 0.239
v -3.530396 -0.4662117 0.239
v -3.528828 -0.4583275 0.247
v -3.528828 -0.4583275 0.231
v -3.52726 -0.4504432 0.239
v -3.522393 -0.467 0.239
v -3.522 -0.459 0.247
v -3.522 -0.459 0.231
v -3.521607 -0.451 0.239
v -3.478393 -0.451 0.239
v -3.478 -0.459 0.247
v -3.478 -0.459 0.231
v -3.477607 -0.467 0.239
v -3.47274 -0.4504432 0.239
v -3.471172 -0.4583275 0.247
v -3.471172 -0.4583275 0.231
v -3.469604 -0.4662117 0.239
v -3.467682 -0.448909 0.239
v -3.464606 -0.4563358 0.247
v -3.464606 -0.4563358 0.231
v -3.463021 -0.4464175 0.239
v -3.46153 -0.4637626 0.239
v -3.458935 -0.4430645 0.239
v -3.458555 -0.4531014 0.247
v -3.458555 -0.4531014 0.231
v -3.455583 -0.4389789 0.239
v -3.454089 -0.4597854 0.239
v -3.453251 -0.4487487 0.247
v -3.453251 -0.4487487 0.231
v -3.453091 -0.4343176 0.239
v -3.451557 -0.4292599 0.239
v -3.451 0.422 0.239
v -3.451 -0.423607 0.239
v -3.448899 -0.443445 0.247
v -3.448899 -0.443445 0.231
v -3.447567 -0.454433 0.239
v -3.445664 -0.4373939 0.247
v -3.445664 -0.4373939 0.231
v -3.443672 -0.4308282 0.247
v -3.443672 -0.4308282 0.231
v -3.443 0.422 0.247
v -3.443 -0.424 0.247
v -3.443 0.422 0.239
v -3.443 0.422 0.231
v -3.443 -0.424 0.231
v -3.442215 -0.447911 0.239
v -3.438237 -0.4404702 0.239
v -3.435788 -0.4323964 0.239
v -3.435 0.422 0.239
v -3.435 -0.424393 0.239
vn -0.9987954 0.04906768 0
vn -0.5773503 -0.8164966 0
vn -0.9807853 0.1950903 0
vn -0.9238796 0.3826834 0
vn -0.8314696 0.5555702 0
vn 0 0 1
vn 0 -0.8164966 0.5773503
vn 0 -1 0
vn 0 0 -1
vn 0 -0.8164966 -0.5773503
vn 0 0 1
vn 0 0 -1
vn 0 0 1
vn 0 0 -1
vn -0.7071068 0.7071068 0
vn 0 0 1
vn 0 0 -1
vn 0.9987954 -0.04906768 0
vn 0.5773503 -0.8164966 0
vn 0.9807853 -0.1950903 0
vn 0.9238796 -0.3826834 0
vn 0 0 1
vn 0 0 -1
vn -0.5555702 0.8314696 0
vn 0.8314696 -0.5555702 0
vn 0 0 1
vn 0 0 -1
vn 0.7071068 -0.7071068 0
vn -0.3826834 0.9238796 0
vn 0.5555702 -0.8314696 0
vn 0 0 1
vn 0 0 -1
vn 0.3826834 -0.9238796 0
vn -0.1950903 0.9807853 0
vn 0 0 1
vn 0 0 -1
vn 0.1950903 -0.9807853 0
vn -0.04906768 0.9987954 0
vn -1.173041E-16 0 1
vn -1.173041E-16 0 -1
vn 0.04906768 -0.9987954 0
vn -0.04906768 -0.9987954 0
vn 0 0 1
vn 0 0 -1
vn 0.04906768 0.9987954 0
vn -0.1950903 -0.9807853 0
vn 0 0 1
vn 0 0 -1
vn 0.1950903 0.9807853 0
vn -0.3826834 -0.9238796 0
vn 0 0 1
vn 0 0 -1
vn -0.5555702 -0.8314696 0
vn 0.3826834 0.9238796 0
vn -0.7071068 -0.7071068 0
vn 0 0 1
vn 0 0 -1
vn -0.8314696 -0.5555702 0
vn 0.5555702 0.8314696 0
vn 0 0 1
vn 0 0 -1
vn -0.9238796 -0.3826834 0
vn -0.9807853 -0.1950903 0
vn -0.9987954 -0.04906768 0
vn -0.5773503 -0.8164966 0
vn 0 0 1
vn 0 0 -1
vn 0.7071068 0.7071068 0
vn 0 0 1
vn 0 0 -1
vn 0 0 1
vn 0 0 -1
vn 0 0 1
vn 0 -0.8164966 0.5773503
vn 0 -1 0
vn 0 0 -1
vn 0 -0.8164966 -0.5773503
vn 0.8314696 0.5555702 0
vn 0.9238796 0.3826834 0
vn 0.9807853 0.1950903 0
vn 0.9987954 0.04906768 0
vn 0.5773503 -0.8164966 0
vn -0.5773503 0.8164966 0
vn -0.9987954 -0.04906768 0
vn -0.9807853 -0.1950903 0
vn -0.9238796 -0.3826834 0
vn -0.8314696 -0.5555702 0
vn 0 0.8164966 0.5773503
vn 0 0 1
vn 0 1 0
vn 0 0.8164966 -0.5773503
vn 0 0 -1
vn 0 0 1
vn 0 0 -1
vn 0 0 1
vn 0 0 -1
vn -0.7071068 -0.7071068 0
vn 0 0 1
vn 0 0 -1
vn 0.5773503 0.8164966 0
vn 0.9987954 0.04906768 0
vn 0.9807853 0.1950903 0
vn 0.9238796 0.3826834 0
vn 0 0 1
vn 0 0 -1
vn -0.5555702 -0.8314696 0
vn 0.8314696 0.5555702 0
vn 0 0 1
vn 0 0 -1
vn 0.7071068 0.7071068 0
vn -0.3826834 -0.9238796 0
vn 0.5555702 0.8314696 0
vn 0 0 1
vn 0 0 -1
vn 0.3826834 0.9238796 0
vn -0.1950903 -0.9807853 0
vn 0 0 1
vn 0 0 -1
vn 0.1950903 0.9807853 0
vn -0.04906768 -0.9987954 0
vn 2.003595E-16 0 1
vn 2.003595E-16 0 -1
vn 0.04906768 0.9987954 0
vn -0.04906768 0.9987954 0
vn 0 0 1
vn 0 0 -1
vn 0.04906768 -0.9987954 0
vn -0.1950903 0.9807853 0
vn 0 0 1
vn 0 0 -1
vn 0.1950903 -0.9807853 0
vn -0.3826834 0.9238796 0
vn 0 0 1
vn 0 0 -1
vn -0.5555702 0.8314696 0
vn 0.3826834 -0.9238796 0
vn -0.7071068 0.7071068 0
vn 0 0 1
vn 0 0 -1
vn -0.8314696 0.5555702 0
vn 0.5555702 -0.8314696 0
vn 0 0 1
vn 0 0 -1
vn -0.9238796 0.3826834 0
vn -0.9807853 0.1950903 0
vn -0.5773503 0.8164966 0
vn -0.9987954 0.04906768 0
vn 0 0 1
vn 0 0 -1
vn 0.7071068 -0.7071068 0
vn 0 0 1
vn 0 0 -1
vn 0 0 1
vn 0 0 -1
vn 0 0.8164966 0.5773503
vn 0 0 1
vn 0 1 0
vn 0 0.8164966 -0.5773503
vn 0 0 -1
vn 0.8314696 -0.5555702 0
vn 0.9238796 -0.3826834 0
vn 0.9807853 -0.1950903 0
vn 0.5773503 0.8164966 0
vn 0.9987954 -0.04906768 0

g mesh_reinforcement_wall_H0
f 74/74/74 73/73/73 64/64/64
f 82/82/82 81/81/81 73/73/73
f 77/77/77 76/76/76 82/82/82
f 65/65/65 64/64/64 77/77/77
f 73/73/73 71/71/71 63/63/63
f 81/81/81 80/80/80 71/71/71
f 76/76/76 72/72/72 81/81/81
f 64/64/64 63/63/63 76/76/76
f 71/71/71 69/69/69 63/63/63
f 80/80/80 79/79/79 71/71/71
f 72/72/72 70/70/70 79/79/79
f 63/63/63 62/62/62 70/70/70
f 69/69/69 66/66/66 62/62/62
f 79/79/79 78/78/78 66/66/66
f 70/70/70 67/67/67 79/79/79
f 62/62/62 58/58/58 67/67/67
f 66/66/66 60/60/60 58/58/58
f 78/78/78 68/68/68 60/60/60
f 67/67/67 61/61/61 78/78/78
f 58/58/58 55/55/55 61/61/61
f 60/60/60 56/56/56 53/53/53
f 68/68/68 59/59/59 56/56/56
f 61/61/61 57/57/57 68/68/68
f 55/55/55 53/53/53 61/61/61
f 56/56/56 51/51/51 53/53/53
f 59/59/59 54/54/54 56/56/56
f 57/57/57 52/52/52 54/54/54
f 53/53/53 50/50/50 52/52/52
f 51/51/51 47/47/47 50/50/50
f 54/54/54 49/49/49 47/47/47
f 52/52/52 48/48/48 54/54/54
f 50/50/50 46/46/46 48/48/48
f 47/47/47 43/43/43 46/46/46
f 49/49/49 45/45/45 47/47/47
f 48/48/48 44/44/44 45/45/45
f 46/46/46 42/42/42 44/44/44
f 43/43/43 39/39/39 42/42/42
f 45/45/45 38/38/38 43/43/43
f 44/44/44 40/40/40 38/38/38
f 42/42/42 41/41/41 40/40/40
f 39/39/39 35/35/35 37/37/37
f 38/38/38 34/34/34 35/35/35
f 40/40/40 36/36/36 38/38/38
f 41/41/41 37/37/37 40/40/40
f 35/35/35 31/31/31 33/33/33
f 34/34/34 29/29/29 35/35/35
f 36/36/36 32/32/32 29/29/29
f 37/37/37 33/33/33 36/36/36
f 31/31/31 26/26/26 30/30/30
f 29/29/29 24/24/24 31/31/31
f 32/32/32 27/27/27 24/24/24
f 33/33/33 30/30/30 32/32/32
f 26/26/26 22/22/22 28/28/28
f 24/24/24 15/15/15 26/26/26
f 27/27/27 23/23/23 15/15/15
f 30/30/30 28/28/28 27/27/27
f 22/22/22 16/16/16 25/25/25
f 15/15/15 5/5/5 16/16/16
f 23/23/23 17/17/17 15/15/15
f 28/28/28 25/25/25 23/23/23
f 16/16/16 13/13/13 25/25/25
f 5/5/5 4/4/4 16/16/16
f 17/17/17 14/14/14 4/4/4
f 25/25/25 21/21/21 14/14/14
f 13/13/13 11/11/11 20/20/20
f 4/4/4 3/3/3 11/11/11
f 14/14/14 12/12/12 4/4/4
f 21/21/21 20/20/20 14/14/14
f 11/11/11 6/6/6 20/20/20
f 3/3/3 1/1/1 11/11/11
f 12/12/12 9/9/9 1/1/1
f 20/20/20 18/18/18 9/9/9
f 6/6/6 7/7/7 18/18/18
f 1/1/1 2/2/2 6/6/6
f 9/9/9 10/10/10 2/2/2
f 18/18/18 19/19/19 10/10/10
f 82/82/82 74/74/74 75/75/75
f 74/74/74 65/65/65 75/75/75
f 65/65/65 77/77/77 75/75/75
f 77/77/77 82/82/82 75/75/75
f 19/19/19 7/7/7 8/8/8
f 7/7/7 2/2/2 8/8/8
f 2/2/2 10/10/10 8/8/8
f 10/10/10 19/19/19 8/8/8
f 155/155/155 156/156/156 163/163/163
f 146/146/146 147/147/147 155/155/155
f 158/158/158 159/159/159 147/147/147
f 163/163/163 164/164/164 159/159/159
f 156/156/156 153/153/153 164/164/164
f 147/147/147 145/145/145 156/156/156
f 159/159/159 154/154/154 145/145/145
f 164/164/164 162/162/162 154/154/154
f 153/153/153 151/151/151 161/161/161
f 145/145/145 144/144/144 151/151/151
f 154/154/154 152/152/152 145/145/145
f 162/162/162 161/161/161 154/154/154
f 151/151/151 148/148/148 161/161/161
f 144/144/144 140/140/140 148/148/148
f 152/152/152 149/149/149 144/144/144
f 161/161/161 160/160/160 149/149/149
f 148/148/148 142/142/142 150/150/150
f 140/140/140 137/137/137 142/142/142
f 149/149/149 143/143/143 140/140/140
f 160/160/160 150/150/150 149/149/149
f 142/142/142 138/138/138 141/141/141
f 137/137/137 135/135/135 142/142/142
f 143/143/143 139/139/139 135/135/135
f 150/150/150 141/141/141 143/143/143
f 138/138/138 133/133/133 136/136/136
f 135/135/135 132/132/132 133/133/133
f 139/139/139 134/134/134 135/135/135
f 141/141/141 136/136/136 139/139/139
f 133/133/133 129/129/129 136/136/136
f 132/132/132 128/128/128 133/133/133
f 134/134/134 130/130/130 128/128/128
f 136/136/136 131/131/131 130/130/130
f 129/129/129 125/125/125 127/127/127
f 128/128/128 124/124/124 125/125/125
f 130/130/130 126/126/126 128/128/128
f 131/131/131 127/127/127 130/130/130
f 125/125/125 121/121/121 120/120/120
f 124/124/124 123/123/123 121/121/121
f 126/126/126 122/122/122 124/124/124
f 127/127/127 120/120/120 126/126/126
f 121/121/121 117/117/117 120/120/120
f 123/123/123 119/119/119 121/121/121
f 122/122/122 118/118/118 119/119/119
f 120/120/120 116/116/116 118/118/118
f 117/117/117 113/113/113 111/111/111
f 119/119/119 115/115/115 113/113/113
f 118/118/118 114/114/114 119/119/119
f 116/116/116 111/111/111 118/118/118
f 113/113/113 108/108/108 111/111/111
f 115/115/115 112/112/112 113/113/113
f 114/114/114 109/109/109 112/112/112
f 111/111/111 106/106/106 109/109/109
f 108/108/108 104/104/104 97/97/97
f 112/112/112 110/110/110 104/104/104
f 109/109/109 105/105/105 112/112/112
f 106/106/106 97/97/97 109/109/109
f 104/104/104 98/98/98 87/87/87
f 110/110/110 107/107/107 104/104/104
f 105/105/105 99/99/99 107/107/107
f 97/97/97 87/87/87 105/105/105
f 98/98/98 95/95/95 86/86/86
f 107/107/107 103/103/103 95/95/95
f 99/99/99 96/96/96 107/107/107
f 87/87/87 86/86/86 99/99/99
f 95/95/95 93/93/93 86/86/86
f 103/103/103 102/102/102 95/95/95
f 96/96/96 94/94/94 102/102/102
f 86/86/86 85/85/85 94/94/94
f 93/93/93 89/89/89 84/84/84
f 102/102/102 101/101/101 89/89/89
f 94/94/94 92/92/92 102/102/102
f 85/85/85 84/84/84 94/94/94
f 89/89/89 88/88/88 83/83/83
f 101/101/101 100/100/100 88/88/88
f 92/92/92 91/91/91 101/101/101
f 84/84/84 83/83/83 92/92/92
f 163/163/163 157/157/157 155/155/155
f 155/155/155 157/157/157 146/146/146
f 146/146/146 157/157/157 158/158/158
f 158/158/158 157/157/157 163/163/163
f 100/100/100 90/90/90 88/88/88
f 88/88/88 90/90/90 83/83/83
f 83/83/83 90/90/90 91/91/91
f 91/91/91 90/90/90 100/100/100
f 74/74/74 64/64/64 65/65/65
f 82/82/82 73/73/73 74/74/74
f 76/76/76 81/81/81 82/82/82
f 64/64/64 76/76/76 77/77/77
f 73/73/73 63/63/63 64/64/64
f 81/81/81 71/71/71 73/73/73
f 72/72/72 80/80/80 81/81/81
f 63/63/63 72/72/72 76/76/76
f 69/69/69 62/62/62 63/63/63
f 79/79/79 69/69/69 71/71/71
f 72/72/72 79/79/79 80/80/80
f 63/63/63 70/70/70 72/72/72
f 66/66/66 58/58/58 62/62/62
f 79/79/79 66/66/66 69/69/69
f 67/67/67 78/78/78 79/79/79
f 62/62/62 67/67/67 70/70/70
f 60/60/60 55/55/55 58/58/58
f 78/78/78 60/60/60 66/66/66
f 61/61/61 68/68/68 78/78/78
f 58/58/58 61/61/61 67/67/67
f 60/60/60 53/53/53 55/55/55
f 68/68/68 56/56/56 60/60/60
f 57/57/57 59/59/59 68/68/68
f 53/53/53 57/57/57 61/61/61
f 51/51/51 50/50/50 53/53/53
f 54/54/54 51/51/51 56/56/56
f 57/57/57 54/54/54 59/59/59
f 53/53/53 52/52/52 57/57/57
f 47/47/47 46/46/46 50/50/50
f 54/54/54 47/47/47 51/51/51
f 48/48/48 49/49/49 54/54/54
f 50/50/50 48/48/48 52/52/52
f 43/43/43 42/42/42 46/46/46
f 45/45/45 43/43/43 47/47/47
f 48/48/48 45/45/45 49/49/49
f 46/46/46 44/44/44 48/48/48
f 39/39/39 41/41/41 42/42/42
f 38/38/38 39/39/39 43/43/43
f 44/44/44 38/38/38 45/45/45
f 42/42/42 40/40/40 44/44/44
f 39/39/39 37/37/37 41/41/41
f 38/38/38 35/35/35 39/39/39
f 36/36/36 34/34/34 38/38/38
f 37/37/37 36/36/36 40/40/40
f 35/35/35 33/33/33 37/37/37
f 29/29/29 31/31/31 35/35/35
f 36/36/36 29/29/29 34/34/34
f 33/33/33 32/32/32 36/36/36
f 31/31/31 30/30/30 33/33/33
f 24/24/24 26/26/26 31/31/31
f 32/32/32 24/24/24 29/29/29
f 30/30/30 27/27/27 32/32/32
f 26/26/26 28/28/28 30/30/30
f 15/15/15 22/22/22 26/26/26
f 27/27/27 15/15/15 24/24/24
f 28/28/28 23/23/23 27/27/27
f 22/22/22 25/25/25 28/28/28
f 15/15/15 16/16/16 22/22/22
f 17/17/17 5/5/5 15/15/15
f 25/25/25 17/17/17 23/23/23
f 13/13/13 21/21/21 25/25/25
f 4/4/4 13/13/13 16/16/16
f 17/17/17 4/4/4 5/5/5
f 25/25/25 14/14/14 17/17/17
f 13/13/13 20/20/20 21/21/21
f 4/4/4 11/11/11 13/13/13
f 12/12/12 3/3/3 4/4/4
f 20/20/20 12/12/12 14/14/14
f 6/6/6 18/18/18 20/20/20
f 1/1/1 6/6/6 11/11/11
f 12/12/12 1/1/1 3/3/3
f 20/20/20 9/9/9 12/12/12
f 7/7/7 19/19/19 18/18/18
f 2/2/2 7/7/7 6/6/6
f 9/9/9 2/2/2 1/1/1
f 18/18/18 10/10/10 9/9/9
f 156/156/156 164/164/164 163/163/163
f 147/147/147 156/156/156 155/155/155
f 158/158/158 147/147/147 146/146/146
f 163/163/163 159/159/159 158/158/158
f 153/153/153 162/162/162 164/164/164
f 145/145/145 153/153/153 156/156/156
f 159/159/159 145/145/145 147/147/147
f 164/164/164 154/154/154 159/159/159
f 153/153/153 161/161/161 162/162/162
f 145/145/145 151/151/151 153/153/153
f 152/152/152 144/144/144 145/145/145
f 161/161/161 152/152/152 154/154/154
f 148/148/148 160/160/160 161/161/161
f 144/144/144 148/148/148 151/151/151
f 149/149/149 140/140/140 144/144/144
f 161/161/161 149/149/149 152/152/152
f 148/148/148 150/150/150 160/160/160
f 140/140/140 142/142/142 148/148/148
f 143/143/143 137/137/137 140/140/140
f 150/150/150 143/143/143 149/149/149
f 142/142/142 141/141/141 150/150/150
f 135/135/135 138/138/138 142/142/142
f 143/143/143 135/135/135 137/137/137
f 141/141/141 139/139/139 143/143/143
f 138/138/138 136/136/136 141/141/141
f 135/135/135 133/133/133 138/138/138
f 134/134/134 132/132/132 135/135/135
f 136/136/136 134/134/134 139/139/139
f 129/129/129 131/131/131 136/136/136
f 128/128/128 129/129/129 133/133/133
f 134/134/134 128/128/128 132/132/132
f 136/136/136 130/130/130 134/134/134
f 129/129/129 127/127/127 131/131/131
f 128/128/128 125/125/125 129/129/129
f 126/126/126 124/124/124 128/128/128
f 127/127/127 126/126/126 130/130/130
f 125/125/125 120/120/120 127/127/127
f 124/124/124 121/121/121 125/125/125
f 122/122/122 123/123/123 124/124/124
f 120/120/120 122/122/122 126/126/126
f 117/117/117 116/116/116 120/120/120
f 119/119/119 117/117/117 121/121/121
f 122/122/122 119/119/119 123/123/123
f 120/120/120 118/118/118 122/122/122
f 117/117/117 111/111/111 116/116/116
f 119/119/119 113/113/113 117/117/117
f 114/114/114 115/115/115 119/119/119
f 111/111/111 114/114/114 118/118/118
f 108/108/108 106/106/106 111/111/111
f 112/112/112 108/108/108 113/113/113
f 114/114/114 112/112/112 115/115/115
f 111/111/111 109/109/109 114/114/114
f 108/108/108 97/97/97 106/106/106
f 112/112/112 104/104/104 108/108/108
f 105/105/105 110/110/110 112/112/112
f 97/97/97 105/105/105 109/109/109
f 104/104/104 87/87/87 97/97/97
f 107/107/107 98/98/98 104/104/104
f 105/105/105 107/107/107 110/110/110
f 87/87/87 99/99/99 105/105/105
f 98/98/98 86/86/86 87/87/87
f 107/107/107 95/95/95 98/98/98
f 96/96/96 103/103/103 107/107/107
f 86/86/86 96/96/96 99/99/99
f 93/93/93 85/85/85 86/86/86
f 102/102/102 93/93/93 95/95/95
f 96/96/96 102/102/102 103/103/103
f 86/86/86 94/94/94 96/96/96
f 93/93/93 84/84/84 85/85/85
f 102/102/102 89/89/89 93/93/93
f 92/92/92 101/101/101 102/102/102
f 84/84/84 92/92/92 94/94/94
f 89/89/89 83/83/83 84/84/84
f 101/101/101 88/88/88 89/89/89
f 91/91/91 100/100/100 101/101/101
f 83/83/83 91/91/91 92/92/92
