v 4.4215655 -0.51306736 0.6898562
v 3.4215655 -0.51306736 0.6898562
v 4.4215655 -0.51306736 1.6898562
v 3.4215655 -0.51306736 1.6898562
v 3.4215655 2.4869325 0.6898562
v 3.4215655 2.4869325 1.6898562
v 1.9215657 2.4869325 0.6898562
v 1.9215657 2.4869325 1.6898562
v 0.42156562 2.4869325 0.6898562
v 0.42156562 2.4869325 1.6898562
v -0.5784344 2.4869325 0.6898562
v -0.5784344 2.4869325 1.6898562
v -2.0784345 2.4869325 0.6898562
v -2.0784345 2.4869325 1.6898562
v -3.5784345 2.4869325 0.6898562
v -3.5784345 2.4869325 1.6898562
v -3.5784345 -0.51306736 1.6898562
v -3.5784345 -0.51306736 0.6898562
v -4.5784345 -0.51306736 1.6898562
v -4.5784345 -0.51306736 0.6898562
v 0.42156562 -0.51306736 0.6898562
v -0.5784344 -0.51306736 0.6898562
v 0.42156562 -0.51306736 1.6898562
v -0.5784344 -0.51306736 1.6898562
v 4.4215655 1.4869326 0.6898562
v 4.4215655 1.4869326 1.6898562
v -0.078434385 1.4869326 0.6898562
v -0.078434385 1.4869326 1.6898562
v -4.5784345 1.4869326 0.6898562
v -4.5784345 1.4869326 1.6898562
v 4.4215655 -0.51306736 0.6898562
v 3.4215655 -0.51306736 0.6898562
v 4.4215655 -0.51306736 1.6898562
v 3.4215655 -0.51306736 1.6898562
v 3.4215655 2.4869325 0.6898562
v 3.4215655 2.4869325 1.6898562
v 1.9215657 2.4869325 0.6898562
v 1.9215657 2.4869325 1.6898562
v 0.42156562 2.4869325 0.6898562
v 0.42156562 2.4869325 1.6898562
v -0.5784344 2.4869325 0.6898562
v -0.5784344 2.4869325 1.6898562
v -2.0784345 2.4869325 0.6898562
v -2.0784345 2.4869325 1.6898562
v -3.5784345 2.4869325 0.6898562
v -3.5784345 2.4869325 1.6898562
v -3.5784345 -0.51306736 1.6898562
v -3.5784345 -0.51306736 0.6898562
v -4.5784345 -0.51306736 1.6898562
v -4.5784345 -0.51306736 0.6898562
v 0.42156562 -0.51306736 0.6898562
v -0.5784344 -0.51306736 0.6898562
v 0.42156562 -0.51306736 1.6898562
v -0.5784344 -0.51306736 1.6898562
v 4.4215655 1.4869326 0.6898562
v 4.4215655 1.4869326 1.6898562
v -0.078434385 1.4869326 0.6898562
v -0.078434385 1.4869326 1.6898562
v -4.5784345 1.4869326 0.6898562
v -4.5784345 1.4869326 1.6898562
vt 0.000000 0.000000
vt 0.000000 1.000000
vt 1.000000 0.000000
vt 1.000000 1.000000
vt 0.000000 0.000000
vt 0.000000 1.000000
vt 0.500000 0.000000
vt 0.500000 1.000000
vt 1.000000 0.000000
vt 1.000000 1.000000
vt 0.000000 0.000000
vt 0.000000 1.000000
vt 0.500000 0.000000
vt 0.500000 1.000000
vt 1.000000 0.000000
vt 1.000000 1.000000
vt 0.000000 0.000000
vt 0.000000 1.000000
vt 1.000000 0.000000
vt 1.000000 1.000000
vt 0.000000 0.000000
vt 0.000000 1.000000
vt 1.000000 0.000000
vt 1.000000 1.000000
vt 0.000000 0.000000
vt 0.000000 1.000000
vt 0.500000 0.000000
vt 0.500000 1.000000
vt 1.000000 0.000000
vt 1.000000 1.000000
vt 0.000000 0.000000
vt 0.000000 1.000000
vt 1.000000 0.000000
vt 1.000000 1.000000
vt 0.000000 0.000000
vt 0.000000 1.000000
vt 0.500000 0.000000
vt 0.500000 1.000000
vt 1.000000 0.000000
vt 1.000000 1.000000
vt 0.000000 0.000000
vt 0.000000 1.000000
vt 0.500000 0.000000
vt 0.500000 1.000000
vt 1.000000 0.000000
vt 1.000000 1.000000
vt 0.000000 0.000000
vt 0.000000 1.000000
vt 1.000000 0.000000
vt 1.000000 1.000000
vt 0.000000 0.000000
vt 0.000000 1.000000
vt 1.000000 0.000000
vt 1.000000 1.000000
vt 0.000000 0.000000
vt 0.000000 1.000000
vt 0.500000 0.000000
vt 0.500000 1.000000
vt 1.000000 0.000000
vt 1.000000 1.000000
vn -0 -1 0
vn -0 -1 0
vn -0 -1 0
vn -0 -1 0
vn -0 1 0
vn -0 1 0
vn -0 1 0
vn -0 1 0
vn -0 1 0
vn -0 1 0
vn -0 1 0
vn -0 1 0
vn -0 1 0
vn -0 1 0
vn -0 1 0
vn -0 1 0
vn -0 -1 0
vn -0 -1 0
vn -0 -1 0
vn -0 -1 0
vn -0 -1 0
vn -0 -1 0
vn -0 -1 0
vn -0 -1 0
vn -0 1 0
vn -0 1 0
vn -0 1 0
vn -0 1 0
vn -0 1 0
vn -0 1 0
vn 0 1 -0
vn 0 1 -0
vn 0 1 -0
vn 0 1 -0
vn 0 -1 -0
vn 0 -1 -0
vn 0 -1 -0
vn 0 -1 -0
vn 0 -1 -0
vn 0 -1 -0
vn 0 -1 -0
vn 0 -1 -0
vn 0 -1 -0
vn 0 -1 -0
vn 0 -1 -0
vn 0 -1 -0
vn 0 1 -0
vn 0 1 -0
vn 0 1 -0
vn 0 1 -0
vn 0 1 -0
vn 0 1 -0
vn 0 1 -0
vn 0 1 -0
vn 0 -1 -0
vn 0 -1 -0
vn 0 -1 -0
vn 0 -1 -0
vn 0 -1 -0
vn 0 -1 -0

g mesh_BB0
f 4/4/4 2/2/2 1/1/1
f 8/8/8 6/6/6 5/5/5
f 10/10/10 8/8/8 7/7/7
f 14/14/14 12/12/12 11/11/11
f 16/16/16 14/14/14 13/13/13
f 20/20/20 18/18/18 17/17/17
f 24/24/24 22/22/22 21/21/21
f 28/28/28 26/26/26 25/25/25
f 30/30/30 28/28/28 27/27/27
f 34/34/34 33/33/33 31/31/31
f 38/38/38 37/37/37 35/35/35
f 40/40/40 39/39/39 37/37/37
f 44/44/44 43/43/43 41/41/41
f 46/46/46 45/45/45 43/43/43
f 50/50/50 49/49/49 47/47/47
f 54/54/54 53/53/53 51/51/51
f 58/58/58 57/57/57 55/55/55
f 60/60/60 59/59/59 57/57/57
f 4/4/4 1/1/1 3/3/3
f 8/8/8 5/5/5 7/7/7
f 10/10/10 7/7/7 9/9/9
f 14/14/14 11/11/11 13/13/13
f 16/16/16 13/13/13 15/15/15
f 20/20/20 17/17/17 19/19/19
f 24/24/24 21/21/21 23/23/23
f 28/28/28 25/25/25 27/27/27
f 30/30/30 27/27/27 29/29/29
f 34/34/34 31/31/31 32/32/32
f 38/38/38 35/35/35 36/36/36
f 40/40/40 37/37/37 38/38/38
f 44/44/44 41/41/41 42/42/42
f 46/46/46 43/43/43 44/44/44
f 50/50/50 47/47/47 48/48/48
f 54/54/54 51/51/51 52/52/52
f 58/58/58 55/55/55 56/56/56
f 60/60/60 57/57/57 58/58/58
