v 3.5 -0.3 -0.2
v -3.4 -0.3 -0.2
v 3.5 -0.3 0.2
v -3.4 -0.3 0.2
v 3.5 -0.3 0.2
v -3.4 -0.3 0.2
v 3.5 0.3 0.2
v -3.4 0.3 0.2
v 3.5 0.3 0.2
v -3.4 0.3 0.2
v 3.5 0.3 -0.2
v -3.4 0.3 -0.2
v 3.5 0.3 -0.2
v -3.4 0.3 -0.2
v 3.5 -0.3 -0.2
v -3.4 -0.3 -0.2
v 3.5 -0.5 -0.4
v -3.4 -0.5 -0.4
v 3.5 -0.5 0.4
v -3.4 -0.5 0.4
v 3.5 -0.5 0.4
v -3.4 -0.5 0.4
v 3.5 0.5 0.4
v -3.4 0.5 0.4
v 3.5 0.5 0.4
v -3.4 0.5 0.4
v 3.5 0.5 -0.4
v -3.4 0.5 -0.4
v 3.5 0.5 -0.4
v -3.4 0.5 -0.4
v 3.5 -0.5 -0.4
v -3.4 -0.5 -0.4
v 3.5 -0.3 0.2
v 3.5 -0.3 -0.2
v 3.5 -0.5 0.2
v 3.5 -0.5 -0.2
v 3.5 -0.5 0.2
v -3.4 -0.5 0.2
v 3.5 -0.3 0.2
v -3.4 -0.3 0.2
v 3.5 -0.5 -0.2
v -3.4 -0.5 -0.2
v 3.5 -0.5 0.2
v -3.4 -0.5 0.2
v 3.5 -0.3 -0.2
v -3.4 -0.3 -0.2
v 3.5 -0.5 -0.2
v -3.4 -0.5 -0.2
v 3.5 -0.3 0.2
v -3.4 -0.3 0.2
v 3.5 -0.3 -0.2
v -3.4 -0.3 -0.2
v -3.4 -0.3 0.2
v -3.4 -0.3 -0.2
v -3.4 -0.5 0.2
v -3.4 -0.5 -0.2
v 3.5 0.3 0.2
v 3.5 -0.3 0.2
v 3.5 0.3 0.4
v 3.5 -0.3 0.4
v 3.5 0.3 0.4
v -3.4 0.3 0.4
v 3.5 0.3 0.2
v -3.4 0.3 0.2
v 3.5 -0.3 0.4
v -3.4 -0.3 0.4
v 3.5 0.3 0.4
v -3.4 0.3 0.4
v 3.5 -0.3 0.2
v -3.4 -0.3 0.2
v 3.5 -0.3 0.4
v -3.4 -0.3 0.4
v 3.5 0.3 0.2
v -3.4 0.3 0.2
v 3.5 -0.3 0.2
v -3.4 -0.3 0.2
v -3.4 0.3 0.2
v -3.4 -0.3 0.2
v -3.4 0.3 0.4
v -3.4 -0.3 0.4
v 3.5 0.5 -0.2
v 3.5 0.5 0.2
v 3.5 0.3 -0.2
v 3.5 0.3 0.2
v 3.5 0.3 -0.2
v -3.4 0.3 -0.2
v 3.5 0.5 -0.2
v -3.4 0.5 -0.2
v 3.5 0.3 0.2
v -3.4 0.3 0.2
v 3.5 0.3 -0.2
v -3.4 0.3 -0.2
v 3.5 0.5 0.2
v -3.4 0.5 0.2
v 3.5 0.3 0.2
v -3.4 0.3 0.2
v 3.5 0.5 -0.2
v -3.4 0.5 -0.2
v 3.5 0.5 0.2
v -3.4 0.5 0.2
v -3.4 0.5 -0.2
v -3.4 0.5 0.2
v -3.4 0.3 -0.2
v -3.4 0.3 0.2
v 3.5 0.3 -0.4
v 3.5 0.3 -0.2
v 3.5 -0.3 -0.4
v 3.5 -0.3 -0.2
v 3.5 -0.3 -0.4
v -3.4 -0.3 -0.4
v 3.5 0.3 -0.4
v -3.4 0.3 -0.4
v 3.5 -0.3 -0.2
v -3.4 -0.3 -0.2
v 3.5 -0.3 -0.4
v -3.4 -0.3 -0.4
v 3.5 0.3 -0.2
v -3.4 0.3 -0.2
v 3.5 -0.3 -0.2
v -3.4 -0.3 -0.2
v 3.5 0.3 -0.4
v -3.4 0.3 -0.4
v 3.5 0.3 -0.2
v -3.4 0.3 -0.2
v -3.4 0.3 -0.4
v -3.4 0.3 -0.2
v -3.4 -0.3 -0.4
v -3.4 -0.3 -0.2
v 3.5 0.3 -0.4
v 3.5 0.5 -0.4
v 3.5 0.3 -0.2
v 3.5 0.5 -0.2
v 3.5 0.3 -0.2
v -3.4 0.3 -0.2
v 3.5 0.3 -0.4
v -3.4 0.3 -0.4
v 3.5 0.5 -0.2
v -3.4 0.5 -0.2
v 3.5 0.3 -0.2
v -3.4 0.3 -0.2
v 3.5 0.5 -0.4
v -3.4 0.5 -0.4
v 3.5 0.5 -0.2
v -3.4 0.5 -0.2
v 3.5 0.3 -0.4
v -3.4 0.3 -0.4
v 3.5 0.5 -0.4
v -3.4 0.5 -0.4
v -3.4 0.3 -0.4
v -3.4 0.5 -0.4
v -3.4 0.3 -0.2
v -3.4 0.5 -0.2
v 3.5 -0.5 -0.4
v 3.5 -0.3 -0.4
v 3.5 -0.5 -0.2
v 3.5 -0.3 -0.2
v 3.5 -0.5 -0.2
v -3.4 -0.5 -0.2
v 3.5 -0.5 -0.4
v -3.4 -0.5 -0.4
v 3.5 -0.3 -0.2
v -3.4 -0.3 -0.2
v 3.5 -0.5 -0.2
v -3.4 -0.5 -0.2
v 3.5 -0.3 -0.4
v -3.4 -0.3 -0.4
v 3.5 -0.3 -0.2
v -3.4 -0.3 -0.2
v 3.5 -0.5 -0.4
v -3.4 -0.5 -0.4
v 3.5 -0.3 -0.4
v -3.4 -0.3 -0.4
v -3.4 -0.5 -0.4
v -3.4 -0.3 -0.4
v -3.4 -0.5 -0.2
v -3.4 -0.3 -0.2
v 3.5 -0.5 0.2
v 3.5 -0.3 0.2
v 3.5 -0.5 0.4
v 3.5 -0.3 0.4
v 3.5 -0.5 0.4
v -3.4 -0.5 0.4
v 3.5 -0.5 0.2
v -3.4 -0.5 0.2
v 3.5 -0.3 0.4
v -3.4 -0.3 0.4
v 3.5 -0.5 0.4
v -3.4 -0.5 0.4
v 3.5 -0.3 0.2
v -3.4 -0.3 0.2
v 3.5 -0.3 0.4
v -3.4 -0.3 0.4
v 3.5 -0.5 0.2
v -3.4 -0.5 0.2
v 3.5 -0.3 0.2
v -3.4 -0.3 0.2
v -3.4 -0.5 0.2
v -3.4 -0.3 0.2
v -3.4 -0.5 0.4
v -3.4 -0.3 0.4
v 3.5 0.3 0.2
v 3.5 0.5 0.2
v 3.5 0.3 0.4
v 3.5 0.5 0.4
v 3.5 0.3 0.4
v -3.4 0.3 0.4
v 3.5 0.3 0.2
v -3.4 0.3 0.2
v 3.5 0.5 0.4
v -3.4 0.5 0.4
v 3.5 0.3 0.4
v -3.4 0.3 0.4
v 3.5 0.5 0.2
v -3.4 0.5 0.2
v 3.5 0.5 0.4
v -3.4 0.5 0.4
v 3.5 0.3 0.2
v -3.4 0.3 0.2
v 3.5 0.5 0.2
v -3.4 0.5 0.2
v -3.4 0.3 0.2
v -3.4 0.5 0.2
v -3.4 0.3 0.4
v -3.4 0.5 0.4
vt 0.142857 0.000000
vt 0.142857 1.000000
vt 0.238095 0.000000
vt 0.238095 1.000000
vt 0.238095 0.000000
vt 0.238095 1.000000
vt 0.380952 0.000000
vt 0.380952 1.000000
vt 0.380952 0.000000
vt 0.380952 1.000000
vt 0.476190 0.000000
vt 0.476190 1.000000
vt 0.476190 0.000000
vt 0.476190 1.000000
vt 0.619048 0.000000
vt 0.619048 1.000000
vt 0.142857 0.000000
vt 0.142857 1.000000
vt 0.333333 0.000000
vt 0.333333 1.000000
vt 0.333333 0.000000
vt 0.333333 1.000000
vt 0.571429 0.000000
vt 0.571429 1.000000
vt 0.571429 0.000000
vt 0.571429 1.000000
vt 0.761905 0.000000
vt 0.761905 1.000000
vt 0.761905 0.000000
vt 0.761905 1.000000
vt 1.000000 0.000000
vt 1.000000 1.000000
vt 0.142857 0.000000
vt 0.142857 0.057971
vt 0.190476 0.000000
vt 0.190476 0.057971
vt 0.095238 0.000000
vt 0.095238 1.000000
vt 0.142857 0.000000
vt 0.142857 1.000000
vt 0.047619 0.000000
vt 0.047619 1.000000
vt 0.142857 0.000000
vt 0.142857 1.000000
vt 0.142857 0.000000
vt 0.142857 1.000000
vt 0.190476 0.000000
vt 0.190476 1.000000
vt 0.142857 0.000000
vt 0.142857 1.000000
vt 0.238095 0.000000
vt 0.238095 1.000000
vt 0.142857 0.000000
vt 0.142857 0.057971
vt 0.190476 0.000000
vt 0.190476 0.057971
vt 0.142857 0.000000
vt 0.142857 0.086957
vt 0.190476 0.000000
vt 0.190476 0.086957
vt 0.095238 0.000000
vt 0.095238 1.000000
vt 0.142857 0.000000
vt 0.142857 1.000000
vt 0.000000 0.000000
vt 0.000000 1.000000
vt 0.142857 0.000000
vt 0.142857 1.000000
vt 0.142857 0.000000
vt 0.142857 1.000000
vt 0.190476 0.000000
vt 0.190476 1.000000
vt 0.142857 0.000000
vt 0.142857 1.000000
vt 0.285714 0.000000
vt 0.285714 1.000000
vt 0.142857 0.000000
vt 0.142857 0.086957
vt 0.190476 0.000000
vt 0.190476 0.086957
vt 0.142857 0.000000
vt 0.142857 0.057971
vt 0.190476 0.000000
vt 0.190476 0.057971
vt 0.095238 0.000000
vt 0.095238 1.000000
vt 0.142857 0.000000
vt 0.142857 1.000000
vt 0.047619 0.000000
vt 0.047619 1.000000
vt 0.142857 0.000000
vt 0.142857 1.000000
vt 0.142857 0.000000
vt 0.142857 1.000000
vt 0.190476 0.000000
vt 0.190476 1.000000
vt 0.142857 0.000000
vt 0.142857 1.000000
vt 0.238095 0.000000
vt 0.238095 1.000000
vt 0.142857 0.000000
vt 0.142857 0.057971
vt 0.190476 0.000000
vt 0.190476 0.057971
vt 0.142857 0.000000
vt 0.142857 0.028986
vt 0.285714 0.000000
vt 0.285714 0.028986
vt 0.000000 0.000000
vt 0.000000 1.000000
vt 0.142857 0.000000
vt 0.142857 1.000000
vt 0.095238 0.000000
vt 0.095238 1.000000
vt 0.142857 0.000000
vt 0.142857 1.000000
vt 0.142857 0.000000
vt 0.142857 1.000000
vt 0.285714 0.000000
vt 0.285714 1.000000
vt 0.142857 0.000000
vt 0.142857 1.000000
vt 0.190476 0.000000
vt 0.190476 1.000000
vt 0.142857 0.000000
vt 0.142857 0.028986
vt 0.285714 0.000000
vt 0.285714 0.028986
vt 0.142857 0.000000
vt 0.142857 0.028986
vt 0.190476 0.000000
vt 0.190476 0.028986
vt 0.095238 0.000000
vt 0.095238 1.000000
vt 0.142857 0.000000
vt 0.142857 1.000000
vt 0.095238 0.000000
vt 0.095238 1.000000
vt 0.142857 0.000000
vt 0.142857 1.000000
vt 0.142857 0.000000
vt 0.142857 1.000000
vt 0.190476 0.000000
vt 0.190476 1.000000
vt 0.142857 0.000000
vt 0.142857 1.000000
vt 0.190476 0.000000
vt 0.190476 1.000000
vt 0.142857 0.000000
vt 0.142857 0.028986
vt 0.190476 0.000000
vt 0.190476 0.028986
vt 0.142857 0.000000
vt 0.142857 0.028986
vt 0.190476 0.000000
vt 0.190476 0.028986
vt 0.095238 0.000000
vt 0.095238 1.000000
vt 0.142857 0.000000
vt 0.142857 1.000000
vt 0.095238 0.000000
vt 0.095238 1.000000
vt 0.142857 0.000000
vt 0.142857 1.000000
vt 0.142857 0.000000
vt 0.142857 1.000000
vt 0.190476 0.000000
vt 0.190476 1.000000
vt 0.142857 0.000000
vt 0.142857 1.000000
vt 0.190476 0.000000
vt 0.190476 1.000000
vt 0.142857 0.000000
vt 0.142857 0.028986
vt 0.190476 0.000000
vt 0.190476 0.028986
vt 0.142857 0.000000
vt 0.142857 0.028986
vt 0.190476 0.000000
vt 0.190476 0.028986
vt 0.095238 0.000000
vt 0.095238 1.000000
vt 0.142857 0.000000
vt 0.142857 1.000000
vt 0.095238 0.000000
vt 0.095238 1.000000
vt 0.142857 0.000000
vt 0.142857 1.000000
vt 0.142857 0.000000
vt 0.142857 1.000000
vt 0.190476 0.000000
vt 0.190476 1.000000
vt 0.142857 0.000000
vt 0.142857 1.000000
vt 0.190476 0.000000
vt 0.190476 1.000000
vt 0.142857 0.000000
vt 0.142857 0.028986
vt 0.190476 0.000000
vt 0.190476 0.028986
vt 0.142857 0.000000
vt 0.142857 0.028986
vt 0.190476 0.000000
vt 0.190476 0.028986
vt 0.095238 0.000000
vt 0.095238 1.000000
vt 0.142857 0.000000
vt 0.142857 1.000000
vt 0.095238 0.000000
vt 0.095238 1.000000
vt 0.142857 0.000000
vt 0.142857 1.000000
vt 0.142857 0.000000
vt 0.142857 1.000000
vt 0.190476 0.000000
vt 0.190476 1.000000
vt 0.142857 0.000000
vt 0.142857 1.000000
vt 0.190476 0.000000
vt 0.190476 1.000000
vt 0.142857 0.000000
vt 0.142857 0.028986
vt 0.190476 0.000000
vt 0.190476 0.028986
vn 0 -1 0
vn 0 -1 0
vn 0 -1 0
vn 0 -1 0
vn 0 0 1
vn 0 0 1
vn 0 0 1
vn 0 0 1
vn 0 1 0
vn 0 1 0
vn 0 1 0
vn 0 1 0
vn 0 0 -1
vn 0 0 -1
vn 0 0 -1
vn 0 0 -1
vn 0 -1 0
vn 0 -1 0
vn 0 -1 0
vn 0 -1 0
vn 0 0 1
vn 0 0 1
vn 0 0 1
vn 0 0 1
vn 0 1 0
vn 0 1 0
vn 0 1 0
vn 0 1 0
vn 0 0 -1
vn 0 0 -1
vn 0 0 -1
vn 0 0 -1
vn 1 0 0
vn 1 0 0
vn 1 0 0
vn 1 0 0
vn 0 0 1
vn 0 0 1
vn 0 0 1
vn 0 0 1
vn 0 -1 0
vn 0 -1 0
vn 0 -1 0
vn 0 -1 0
vn 0 -4.440892E-16 -1
vn 0 -4.440892E-16 -1
vn 0 -4.440892E-16 -1
vn 0 -4.440892E-16 -1
vn 0 1 0
vn 0 1 0
vn 0 1 0
vn 0 1 0
vn -1 0 0
vn -1 0 0
vn -1 0 0
vn -1 0 0
vn 1 0 0
vn 1 0 0
vn 1 0 0
vn 1 0 0
vn 0 1 0
vn 0 1 0
vn 0 1 0
vn 0 1 0
vn 0 -2.220446E-16 1
vn 0 -2.220446E-16 1
vn 0 -2.220446E-16 1
vn 0 -2.220446E-16 1
vn 0 -1 0
vn 0 -1 0
vn 0 -1 0
vn 0 -1 0
vn 0 0 -1
vn 0 0 -1
vn 0 0 -1
vn 0 0 -1
vn -1 0 0
vn -1 0 0
vn -1 0 0
vn -1 0 0
vn 1 0 0
vn 1 0 0
vn 1 0 0
vn 1 0 0
vn 0 -6.661338E-16 -1
vn 0 -6.661338E-16 -1
vn 0 -6.661338E-16 -1
vn 0 -6.661338E-16 -1
vn 0 -1 0
vn 0 -1 0
vn 0 -1 0
vn 0 -1 0
vn 0 0 1
vn 0 0 1
vn 0 0 1
vn 0 0 1
vn 0 1 0
vn 0 1 0
vn 0 1 0
vn 0 1 0
vn -1 0 0
vn -1 0 0
vn -1 0 0
vn -1 0 0
vn 1 0 0
vn 1 0 0
vn 1 0 0
vn 1 0 0
vn 0 -1.110223E-16 -1
vn 0 -1.110223E-16 -1
vn 0 -1.110223E-16 -1
vn 0 -1.110223E-16 -1
vn 0 -1 2.220446E-16
vn 0 -1 2.220446E-16
vn 0 -1 2.220446E-16
vn 0 -1 2.220446E-16
vn 0 0 1
vn 0 0 1
vn 0 0 1
vn 0 0 1
vn 0 1 2.220446E-16
vn 0 1 2.220446E-16
vn 0 1 2.220446E-16
vn 0 1 2.220446E-16
vn -1 0 0
vn -1 0 0
vn -1 0 0
vn -1 0 0
vn 1 0 0
vn 1 0 0
vn 1 0 0
vn 1 0 0
vn 0 -1 0
vn 0 -1 0
vn 0 -1 0
vn 0 -1 0
vn 0 6.661338E-16 1
vn 0 6.661338E-16 1
vn 0 6.661338E-16 1
vn 0 6.661338E-16 1
vn 0 1 0
vn 0 1 0
vn 0 1 0
vn 0 1 0
vn 0 0 -1
vn 0 0 -1
vn 0 0 -1
vn 0 0 -1
vn -1 0 0
vn -1 0 0
vn -1 0 0
vn -1 0 0
vn 1 0 0
vn 1 0 0
vn 1 0 0
vn 1 0 0
vn 0 -1 0
vn 0 -1 0
vn 0 -1 0
vn 0 -1 0
vn 0 6.661338E-16 1
vn 0 6.661338E-16 1
vn 0 6.661338E-16 1
vn 0 6.661338E-16 1
vn 0 1 0
vn 0 1 0
vn 0 1 0
vn 0 1 0
vn 0 0 -1
vn 0 0 -1
vn 0 0 -1
vn 0 0 -1
vn -1 0 0
vn -1 0 0
vn -1 0 0
vn -1 0 0
vn 1 0 0
vn 1 0 0
vn 1 0 0
vn 1 0 0
vn 0 -1 0
vn 0 -1 0
vn 0 -1 0
vn 0 -1 0
vn 0 8.881784E-16 1
vn 0 8.881784E-16 1
vn 0 8.881784E-16 1
vn 0 8.881784E-16 1
vn 0 1 0
vn 0 1 0
vn 0 1 0
vn 0 1 0
vn 0 0 -1
vn 0 0 -1
vn 0 0 -1
vn 0 0 -1
vn -1 0 0
vn -1 0 0
vn -1 0 0
vn -1 0 0
vn 1 0 0
vn 1 0 0
vn 1 0 0
vn 1 0 0
vn 0 -1 0
vn 0 -1 0
vn 0 -1 0
vn 0 -1 0
vn 0 8.881784E-16 1
vn 0 8.881784E-16 1
vn 0 8.881784E-16 1
vn 0 8.881784E-16 1
vn 0 1 0
vn 0 1 0
vn 0 1 0
vn 0 1 0
vn 0 0 -1
vn 0 0 -1
vn 0 0 -1
vn 0 0 -1
vn -1 0 0
vn -1 0 0
vn -1 0 0
vn -1 0 0

g mesh_concrete_beam0
f 1/1/1 3/3/3 4/4/4
f 5/5/5 7/7/7 8/8/8
f 9/9/9 11/11/11 12/12/12
f 13/13/13 15/15/15 16/16/16
f 17/17/17 19/19/19 20/20/20
f 21/21/21 23/23/23 24/24/24
f 25/25/25 27/27/27 28/28/28
f 29/29/29 31/31/31 32/32/32
f 34/34/34 33/33/33 35/35/35
f 38/38/38 37/37/37 39/39/39
f 42/42/42 41/41/41 43/43/43
f 46/46/46 45/45/45 47/47/47
f 50/50/50 49/49/49 51/51/51
f 54/54/54 56/56/56 55/55/55
f 58/58/58 57/57/57 59/59/59
f 62/62/62 61/61/61 63/63/63
f 66/66/66 65/65/65 67/67/67
f 70/70/70 69/69/69 71/71/71
f 74/74/74 73/73/73 75/75/75
f 78/78/78 80/80/80 79/79/79
f 82/82/82 84/84/84 83/83/83
f 86/86/86 88/88/88 87/87/87
f 90/90/90 92/92/92 91/91/91
f 94/94/94 96/96/96 95/95/95
f 98/98/98 100/100/100 99/99/99
f 102/102/102 101/101/101 103/103/103
f 106/106/106 108/108/108 107/107/107
f 110/110/110 112/112/112 111/111/111
f 114/114/114 116/116/116 115/115/115
f 118/118/118 120/120/120 119/119/119
f 122/122/122 124/124/124 123/123/123
f 126/126/126 125/125/125 127/127/127
f 130/130/130 132/132/132 131/131/131
f 134/134/134 136/136/136 135/135/135
f 138/138/138 140/140/140 139/139/139
f 142/142/142 144/144/144 143/143/143
f 146/146/146 148/148/148 147/147/147
f 150/150/150 149/149/149 151/151/151
f 154/154/154 156/156/156 155/155/155
f 158/158/158 160/160/160 159/159/159
f 162/162/162 164/164/164 163/163/163
f 166/166/166 168/168/168 167/167/167
f 170/170/170 172/172/172 171/171/171
f 174/174/174 173/173/173 175/175/175
f 178/178/178 180/180/180 179/179/179
f 182/182/182 184/184/184 183/183/183
f 186/186/186 188/188/188 187/187/187
f 190/190/190 192/192/192 191/191/191
f 194/194/194 196/196/196 195/195/195
f 198/198/198 197/197/197 199/199/199
f 202/202/202 204/204/204 203/203/203
f 206/206/206 208/208/208 207/207/207
f 210/210/210 212/212/212 211/211/211
f 214/214/214 216/216/216 215/215/215
f 218/218/218 220/220/220 219/219/219
f 222/222/222 221/221/221 223/223/223
f 1/1/1 4/4/4 2/2/2
f 5/5/5 8/8/8 6/6/6
f 9/9/9 12/12/12 10/10/10
f 13/13/13 16/16/16 14/14/14
f 17/17/17 20/20/20 18/18/18
f 21/21/21 24/24/24 22/22/22
f 25/25/25 28/28/28 26/26/26
f 29/29/29 32/32/32 30/30/30
f 34/34/34 35/35/35 36/36/36
f 38/38/38 39/39/39 40/40/40
f 42/42/42 43/43/43 44/44/44
f 46/46/46 47/47/47 48/48/48
f 50/50/50 51/51/51 52/52/52
f 54/54/54 55/55/55 53/53/53
f 58/58/58 59/59/59 60/60/60
f 62/62/62 63/63/63 64/64/64
f 66/66/66 67/67/67 68/68/68
f 70/70/70 71/71/71 72/72/72
f 74/74/74 75/75/75 76/76/76
f 78/78/78 79/79/79 77/77/77
f 82/82/82 83/83/83 81/81/81
f 86/86/86 87/87/87 85/85/85
f 90/90/90 91/91/91 89/89/89
f 94/94/94 95/95/95 93/93/93
f 98/98/98 99/99/99 97/97/97
f 102/102/102 103/103/103 104/104/104
f 106/106/106 107/107/107 105/105/105
f 110/110/110 111/111/111 109/109/109
f 114/114/114 115/115/115 113/113/113
f 118/118/118 119/119/119 117/117/117
f 122/122/122 123/123/123 121/121/121
f 126/126/126 127/127/127 128/128/128
f 130/130/130 131/131/131 129/129/129
f 134/134/134 135/135/135 133/133/133
f 138/138/138 139/139/139 137/137/137
f 142/142/142 143/143/143 141/141/141
f 146/146/146 147/147/147 145/145/145
f 150/150/150 151/151/151 152/152/152
f 154/154/154 155/155/155 153/153/153
f 158/158/158 159/159/159 157/157/157
f 162/162/162 163/163/163 161/161/161
f 166/166/166 167/167/167 165/165/165
f 170/170/170 171/171/171 169/169/169
f 174/174/174 175/175/175 176/176/176
f 178/178/178 179/179/179 177/177/177
f 182/182/182 183/183/183 181/181/181
f 186/186/186 187/187/187 185/185/185
f 190/190/190 191/191/191 189/189/189
f 194/194/194 195/195/195 193/193/193
f 198/198/198 199/199/199 200/200/200
f 202/202/202 203/203/203 201/201/201
f 206/206/206 207/207/207 205/205/205
f 210/210/210 211/211/211 209/209/209
f 214/214/214 215/215/215 213/213/213
f 218/218/218 219/219/219 217/217/217
f 222/222/222 223/223/223 224/224/224
