v -3.541 0.465 2.587
v -3.541 -0.465 2.587
v -3.533 0.465 2.595
v -3.533 -0.465 2.595
v -3.533 0.465 2.587
v -3.533 -0.465 2.587
v -3.533 0.465 2.579
v -3.533 -0.465 2.579
v -3.525 0.465 2.587
v -3.525 -0.465 2.587
v -3.475 0.465 2.587
v -3.475 -0.465 2.587
v -3.467 0.465 2.595
v -3.467 -0.465 2.595
v -3.467 0.465 2.587
v -3.467 -0.465 2.587
v -3.467 0.465 2.579
v -3.467 -0.465 2.579
v -3.459 0.465 2.587
v -3.459 -0.465 2.587
vn -0.5773503 0.8164966 0
vn -0.5773503 -0.8164966 0
vn 0 0.8164966 0.5773503
vn 0 -0.8164966 0.5773503
vn 0 1 0
vn 0 -1 0
vn 0 0.8164966 -0.5773503
vn 0 -0.8164966 -0.5773503
vn 0.5773503 0.8164966 0
vn 0.5773503 -0.8164966 0
vn -0.5773503 0.8164966 0
vn -0.5773503 -0.8164966 0
vn 0 0.8164966 0.5773503
vn 0 -0.8164966 0.5773503
vn 0 1 0
vn 0 -1 0
vn 0 0.8164966 -0.5773503
vn 0 -0.8164966 -0.5773503
vn 0.5773503 0.8164966 0
vn 0.5773503 -0.8164966 0

g mesh_reinforcement_wall_C0
f 4/4/4 3/3/3 1/1/1
f 10/10/10 9/9/9 3/3/3
f 8/8/8 7/7/7 9/9/9
f 2/2/2 1/1/1 7/7/7
f 10/10/10 6/6/6 8/8/8
f 8/8/8 6/6/6 2/2/2
f 2/2/2 6/6/6 4/4/4
f 4/4/4 6/6/6 10/10/10
f 9/9/9 7/7/7 5/5/5
f 7/7/7 1/1/1 5/5/5
f 1/1/1 3/3/3 5/5/5
f 3/3/3 9/9/9 5/5/5
f 14/14/14 13/13/13 11/11/11
f 20/20/20 19/19/19 13/13/13
f 18/18/18 17/17/17 19/19/19
f 12/12/12 11/11/11 17/17/17
f 20/20/20 16/16/16 18/18/18
f 18/18/18 16/16/16 12/12/12
f 12/12/12 16/16/16 14/14/14
f 14/14/14 16/16/16 20/20/20
f 19/19/19 17/17/17 15/15/15
f 17/17/17 11/11/11 15/15/15
f 11/11/11 13/13/13 15/15/15
f 13/13/13 19/19/19 15/15/15
f 4/4/4 1/1/1 2/2/2
f 10/10/10 3/3/3 4/4/4
f 8/8/8 9/9/9 10/10/10
f 2/2/2 7/7/7 8/8/8
f 14/14/14 11/11/11 12/12/12
f 20/20/20 13/13/13 14/14/14
f 18/18/18 19/19/19 20/20/20
f 12/12/12 17/17/17 18/18/18
