v -3.557 0.037 3.065
v -3.557 0.037 1.15
v -3.549 0.045 3.065
v -3.549 0.037 3.065
v -3.549 0.029 3.065
v -3.549 0.045 1.15
v -3.549 0.037 1.15
v -3.549 0.029 1.15
v -3.541 0.037 3.065
v -3.541 0.037 1.15
v -3.459 0.037 3.065
v -3.459 0.037 1.15
v -3.451 0.045 3.065
v -3.451 0.037 3.065
v -3.451 0.029 3.065
v -3.451 0.045 1.15
v -3.451 0.037 1.15
v -3.451 0.029 1.15
v -3.443 0.037 3.065
v -3.443 0.037 1.15
vn -0.5773503 0 0.8164966
vn -0.5773503 0 -0.8164966
vn 0 0.5773503 0.8164966
vn 0 0 1
vn 0 -0.5773503 0.8164966
vn 0 0.5773503 -0.8164966
vn 0 0 -1
vn 0 -0.5773503 -0.8164966
vn 0.5773503 0 0.8164966
vn 0.5773503 0 -0.8164966
vn -0.5773503 0 0.8164966
vn -0.5773503 0 -0.8164966
vn 0 0.5773503 0.8164966
vn 0 0 1
vn 0 -0.5773503 0.8164966
vn 0 0.5773503 -0.8164966
vn 0 0 -1
vn 0 -0.5773503 -0.8164966
vn 0.5773503 0 0.8164966
vn 0.5773503 0 -0.8164966

g mesh_reinforcement_wall_B0
f 2/2/2 1/1/1 3/3/3
f 8/8/8 5/5/5 1/1/1
f 10/10/10 9/9/9 5/5/5
f 6/6/6 3/3/3 9/9/9
f 8/8/8 7/7/7 10/10/10
f 10/10/10 7/7/7 6/6/6
f 6/6/6 7/7/7 2/2/2
f 2/2/2 7/7/7 8/8/8
f 5/5/5 9/9/9 4/4/4
f 9/9/9 3/3/3 4/4/4
f 3/3/3 1/1/1 4/4/4
f 1/1/1 5/5/5 4/4/4
f 12/12/12 11/11/11 13/13/13
f 18/18/18 15/15/15 11/11/11
f 20/20/20 19/19/19 15/15/15
f 16/16/16 13/13/13 19/19/19
f 18/18/18 17/17/17 20/20/20
f 20/20/20 17/17/17 16/16/16
f 16/16/16 17/17/17 12/12/12
f 12/12/12 17/17/17 18/18/18
f 15/15/15 19/19/19 14/14/14
f 19/19/19 13/13/13 14/14/14
f 13/13/13 11/11/11 14/14/14
f 11/11/11 15/15/15 14/14/14
f 2/2/2 3/3/3 6/6/6
f 8/8/8 1/1/1 2/2/2
f 10/10/10 5/5/5 8/8/8
f 6/6/6 9/9/9 10/10/10
f 12/12/12 13/13/13 16/16/16
f 18/18/18 11/11/11 12/12/12
f 20/20/20 15/15/15 18/18/18
f 16/16/16 19/19/19 20/20/20
