v -7.4996285438537598 -0.50039899349212646 7.2399997711181641
v 27.500371932983398 -0.50039899349212646 7.2399997711181641
v -7.4996285438537598 -3.2969851493835449 7.4166769981384277
v 27.500371932983398 -3.2969851493835449 7.4166769981384277
v -7.4996285438537598 -3.2969851493835449 7.4166769981384277
v 27.500371932983398 -3.2969851493835449 7.4166769981384277
v -7.4996285438537598 -3.2969851493835449 7.1766767501831055
v 27.500371932983398 -3.2969851493835449 7.1766767501831055
v -7.4996285438537598 -3.2969851493835449 7.1766767501831055
v 27.500371932983398 -3.2969851493835449 7.1766767501831055
v -7.4996285438537598 -0.50039899349212646 7
v 27.500371932983398 -0.50039899349212646 7
v -7.4996285438537598 -0.50039899349212646 7
v 27.500371932983398 -0.50039899349212646 7
v -7.4996285438537598 0.49960100650787354 7
v 27.500371932983398 0.49960100650787354 7
v -7.4996285438537598 0.49960100650787354 7
v 27.500371932983398 0.49960100650787354 7
v -7.4996285438537598 3.2969851493835449 7.1766767501831055
v 27.500371932983398 3.2969851493835449 7.1766767501831055
v -7.4996285438537598 3.2969851493835449 7.1766767501831055
v 27.500371932983398 3.2969851493835449 7.1766767501831055
v -7.4996285438537598 3.2969851493835449 7.4166769981384277
v 27.500371932983398 3.2969851493835449 7.4166769981384277
v -7.4996285438537598 3.2969851493835449 7.4166769981384277
v 27.500371932983398 3.2969851493835449 7.4166769981384277
v -7.4996285438537598 0.49960100650787354 7.2399997711181641
v 27.500371932983398 0.49960100650787354 7.2399997711181641
v -7.4996285438537598 0.49960100650787354 7.2399997711181641
v 27.500371932983398 0.49960100650787354 7.2399997711181641
v -7.4996285438537598 0.49960100650787354 8.1999998092651367
v 27.500371932983398 0.49960100650787354 8.1999998092651367
v -7.4996285438537598 0.49960100650787354 8.1999998092651367
v 27.500371932983398 0.49960100650787354 8.1999998092651367
v -7.4996285438537598 -0.50039899349212646 8.1999998092651367
v 27.500371932983398 -0.50039899349212646 8.1999998092651367
v -7.4996285438537598 -0.50039899349212646 8.1999998092651367
v 27.500371932983398 -0.50039899349212646 8.1999998092651367
v -7.4996285438537598 -0.50039899349212646 7.2399997711181641
v 27.500371932983398 -0.50039899349212646 7.2399997711181641
v -7.4996285438537598 -0.50039899349212646 7.2399997711181641
v -7.4996285438537598 -3.2969851493835449 7.4166769981384277
v -7.4996285438537598 -3.2969851493835449 7.1766767501831055
v -7.4996285438537598 -0.50039899349212646 7
v -7.4996285438537598 0.49960100650787354 7
v -7.4996285438537598 3.2969851493835449 7.1766767501831055
v -7.4996285438537598 3.2969851493835449 7.4166769981384277
v -7.4996285438537598 0.49960100650787354 7.2399997711181641
v -7.4996285438537598 0.49960100650787354 8.1999998092651367
v -7.4996285438537598 -0.50039899349212646 8.1999998092651367
v 27.500371932983398 -0.50039899349212646 7.2399997711181641
v 27.500371932983398 -3.2969851493835449 7.4166769981384277
v 27.500371932983398 -3.2969851493835449 7.1766767501831055
v 27.500371932983398 -0.50039899349212646 7
v 27.500371932983398 0.49960100650787354 7
v 27.500371932983398 3.2969851493835449 7.1766767501831055
v 27.500371932983398 3.2969851493835449 7.4166769981384277
v 27.500371932983398 0.49960100650787354 7.2399997711181641
v 27.500371932983398 0.49960100650787354 8.1999998092651367
v 27.500371932983398 -0.50039899349212646 8.1999998092651367
vt 0 0
vt 0 1
vt 0.16754737496376038 0
vt 0.16754737496376038 1
vt 0.16754737496376038 0
vt 0.16754737496376038 1
vt 0.18189749121665955 0
vt 0.18189749121665955 1
vt 0.18189749121665955 0
vt 0.18189749121665955 1
vt 0.34944486618041992 0
vt 0.34944486618041992 1
vt 0.34944486618041992 0
vt 0.34944486618041992 1
vt 0.40923705697059631 0
vt 0.40923705697059631 1
vt 0.40923705697059631 0
vt 0.40923705697059631 1
vt 0.57683205604553223 0
vt 0.57683205604553223 1
vt 0.57683205604553223 0
vt 0.57683205604553223 1
vt 0.5911821722984314 0
vt 0.5911821722984314 1
vt 0.5911821722984314 0
vt 0.5911821722984314 1
vt 0.75877714157104492 0
vt 0.75877714157104492 1
vt 0.75877714157104492 0
vt 0.75877714157104492 1
vt 0.81617766618728638 0
vt 0.81617766618728638 1
vt 0.81617766618728638 0
vt 0.81617766618728638 1
vt 0.87596988677978516 0
vt 0.87596988677978516 1
vt 0.87596988677978516 0
vt 0.87596988677978516 1
vt 0.93337035179138184 0
vt 0.93337035179138184 1
vt 0.94669705629348755 0.079902462661266327
vt 0.95650684833526611 0
vt 0.94318109750747681 0
vt 0.93337130546569824 0.079902462661266327
vt 0.93337130546569824 0.10847388952970505
vt 0.94318109750747681 0.18839915096759796
vt 0.95650684833526611 0.18839915096759796
vt 0.94669705629348755 0.10847388952970505
vt 1 0.10847388952970505
vt 1 0.079902462661266327
vt 0.94669705629348755 0.10849668830633163
vt 0.95650684833526611 0.18839915096759796
vt 0.94318109750747681 0.18839915096759796
vt 0.93337130546569824 0.10849668830633163
vt 0.93337130546569824 0.079925261437892914
vt 0.94318109750747681 0
vt 0.95650684833526611 0
vt 0.94669705629348755 0.079925261437892914
vt 1 0.079925261437892914
vt 1 0.10849668830633163
vn 0 0.063050217926502228 0.99801033735275269
vn 0 0.063050217926502228 0.99801033735275269
vn 0 0.063050217926502228 0.99801033735275269
vn 0 0.063050217926502228 0.99801033735275269
vn 0 -1 0
vn 0 -1 0
vn 0 -1 0
vn 0 -1 0
vn 0 -0.063050217926502228 -0.99801033735275269
vn 0 -0.063050217926502228 -0.99801033735275269
vn 0 -0.063050217926502228 -0.99801033735275269
vn 0 -0.063050217926502228 -0.99801033735275269
vn 0 0 -1
vn 0 0 -1
vn 0 0 -1
vn 0 0 -1
vn 0 0.063032306730747223 -0.99801146984100342
vn 0 0.063032306730747223 -0.99801146984100342
vn 0 0.063032306730747223 -0.99801146984100342
vn 0 0.063032306730747223 -0.99801146984100342
vn 0 1 0
vn 0 1 0
vn 0 1 0
vn 0 1 0
vn 0 -0.063032306730747223 0.99801146984100342
vn 0 -0.063032306730747223 0.99801146984100342
vn 0 -0.063032306730747223 0.99801146984100342
vn 0 -0.063032306730747223 0.99801146984100342
vn 0 1 0
vn 0 1 0
vn 0 1 0
vn 0 1 0
vn 0 0 1
vn 0 0 1
vn 0 0 1
vn 0 0 1
vn 0 -1 0
vn 0 -1 0
vn 0 -1 0
vn 0 -1 0
vn -1 0 0
vn -1 0 0
vn -1 0 0
vn -1 0 0
vn -1 0 0
vn -1 0 0
vn -1 0 0
vn -1 0 0
vn -1 0 0
vn -1 0 0
vn 1 0 0
vn 1 0 0
vn 1 0 0
vn 1 0 0
vn 1 0 0
vn 1 0 0
vn 1 0 0
vn 1 0 0
vn 1 0 0
vn 1 0 0
f 1/1/1 3/3/3 4/4/4 2/2/2
f 5/5/5 7/7/7 8/8/8 6/6/6
f 9/9/9 11/11/11 12/12/12 10/10/10
f 13/13/13 15/15/15 16/16/16 14/14/14
f 17/17/17 19/19/19 20/20/20 18/18/18
f 21/21/21 23/23/23 24/24/24 22/22/22
f 25/25/25 27/27/27 28/28/28 26/26/26
f 29/29/29 31/31/31 32/32/32 30/30/30
f 33/33/33 35/35/35 36/36/36 34/34/34
f 37/37/37 39/39/39 40/40/40 38/38/38
f 45/45/45 48/48/48 46/46/46
f 47/47/47 46/46/46 48/48/48
f 41/41/41 48/48/48 45/45/45
f 48/48/48 50/50/50 49/49/49
f 44/44/44 43/43/43 41/41/41
f 42/42/42 41/41/41 43/43/43
f 45/45/45 44/44/44 41/41/41
f 48/48/48 41/41/41 50/50/50
f 55/55/55 56/56/56 58/58/58
f 57/57/57 58/58/58 56/56/56
f 51/51/51 55/55/55 58/58/58
f 58/58/58 59/59/59 60/60/60
f 54/54/54 51/51/51 53/53/53
f 52/52/52 53/53/53 51/51/51
f 55/55/55 51/51/51 54/54/54
f 58/58/58 60/60/60 51/51/51
