v 9.0003852844238281 -9.9989414215087891 8.199925422668457
v 11.000385284423828 -9.9989414215087891 8.1992835998535156
v 9.0001926422119141 -9.9989414215087891 7.5999255180358887
v 11.000192642211914 -9.9989414215087891 7.5992832183837891
v 9.0001926422119141 -9.9989414215087891 7.5999255180358887
v 11.000192642211914 -9.9989414215087891 7.5992832183837891
v 9 -0.5 7.0003209114074707
v 11 -0.5 6.9996790885925293
v 9 -0.5 7.0003209114074707
v 11 -0.5 6.9996790885925293
v 9 0.49934038519859314 6.9999251365661621
v 11 0.49934038519859314 6.9992833137512207
v 9 0.49934038519859314 6.9999251365661621
v 11 0.49934038519859314 6.9992833137512207
v 9.0001926422119141 9.9989414215087891 7.5999255180358887
v 11.000192642211914 9.9989414215087891 7.5992832183837891
v 9.0001926422119141 9.9989414215087891 7.5999255180358887
v 11.000192642211914 9.9989414215087891 7.5992832183837891
v 9.0003852844238281 9.9989414215087891 8.199925422668457
v 11.000385284423828 9.9989414215087891 8.1992835998535156
v 9.0003852844238281 9.9989414215087891 8.199925422668457
v 11.000385284423828 9.9989414215087891 8.1992835998535156
v 9.0003852844238281 9.638941764831543 8.199925422668457
v 11.000385284423828 9.638941764831543 8.1992835998535156
v 9.0003852844238281 9.638941764831543 8.199925422668457
v 11.000385284423828 9.638941764831543 8.1992835998535156
v 9.000269889831543 9.638941764831543 7.8399252891540527
v 11.000269889831543 9.638941764831543 7.8392834663391113
v 9.000269889831543 9.638941764831543 7.8399252891540527
v 11.000269889831543 9.638941764831543 7.8392834663391113
v 9.0000772476196289 0.49934041500091553 7.2399253845214844
v 11.000077247619629 0.49934041500091553 7.2392830848693848
v 9.0000772476196289 0.49934041500091553 7.2399253845214844
v 11.000077247619629 0.49934041500091553 7.2392830848693848
v 9.0003852844238281 0.5 8.2003211975097656
v 11.000385284423828 0.5 8.1996784210205078
v 9.0003852844238281 0.5 8.2003211975097656
v 11.000385284423828 0.5 8.1996784210205078
v 9.0003852844238281 -0.5 8.2003211975097656
v 11.000385284423828 -0.5 8.1996784210205078
v 9.0003852844238281 -0.5 8.2003211975097656
v 11.000385284423828 -0.5 8.1996784210205078
v 9.0000772476196289 -0.49934041500091553 7.2399253845214844
v 11.000077247619629 -0.49934041500091553 7.2392830848693848
v 9.0000772476196289 -0.49934041500091553 7.2399253845214844
v 11.000077247619629 -0.49934041500091553 7.2392830848693848
v 9.000269889831543 -9.638941764831543 7.8399252891540527
v 11.000269889831543 -9.638941764831543 7.8392834663391113
v 9.000269889831543 -9.638941764831543 7.8399252891540527
v 11.000269889831543 -9.638941764831543 7.8392834663391113
v 9.0003852844238281 -9.638941764831543 8.199925422668457
v 11.000385284423828 -9.638941764831543 8.1992835998535156
v 9.0003852844238281 -9.638941764831543 8.199925422668457
v 11.000385284423828 -9.638941764831543 8.1992835998535156
v 9.0003852844238281 -9.9989414215087891 8.199925422668457
v 11.000385284423828 -9.9989414215087891 8.1992835998535156
v 9.0003852844238281 -9.9989414215087891 8.199925422668457
v 9.0001926422119141 -9.9989414215087891 7.5999255180358887
v 9 -0.5 7.0003209114074707
v 9 0.49934038519859314 6.9999251365661621
v 9.0001926422119141 9.9989414215087891 7.5999255180358887
v 9.0003852844238281 9.9989414215087891 8.199925422668457
v 9.0003852844238281 9.638941764831543 8.199925422668457
v 9.000269889831543 9.638941764831543 7.8399252891540527
v 9.0000772476196289 0.49934041500091553 7.2399253845214844
v 9.0003852844238281 0.5 8.2003211975097656
v 9.0003852844238281 -0.5 8.2003211975097656
v 9.0000772476196289 -0.49934041500091553 7.2399253845214844
v 9.000269889831543 -9.638941764831543 7.8399252891540527
v 9.0003852844238281 -9.638941764831543 8.199925422668457
v 11.000385284423828 -9.9989414215087891 8.1992835998535156
v 11.000192642211914 -9.9989414215087891 7.5992832183837891
v 11 -0.5 6.9996790885925293
v 11 0.49934038519859314 6.9992833137512207
v 11.000192642211914 9.9989414215087891 7.5992832183837891
v 11.000385284423828 9.9989414215087891 8.1992835998535156
v 11.000385284423828 9.638941764831543 8.1992835998535156
v 11.000269889831543 9.638941764831543 7.8392834663391113
v 11.000077247619629 0.49934041500091553 7.2392830848693848
v 11.000385284423828 0.5 8.1996784210205078
v 11.000385284423828 -0.5 8.1996784210205078
v 11.000077247619629 -0.49934041500091553 7.2392830848693848
v 11.000269889831543 -9.638941764831543 7.8392834663391113
v 11.000385284423828 -9.638941764831543 8.1992835998535156
vt 0 0
vt 0 0.72723132371902466
vt 0.01365501806139946 0
vt 0.01365501806139946 0.72723132371902466
vt 0.01365501806139946 0
vt 0.01365501806139946 0.72723132371902466
vt 0.23026564717292786 0
vt 0.23026564717292786 0.72723132371902466
vt 0.23026564717292786 0
vt 0.23026564717292786 0.72723132371902466
vt 0.25300899147987366 0
vt 0.25300899147987366 0.72723132371902466
vt 0.25300899147987366 0
vt 0.25300899147987366 0.72723132371902466
vt 0.46963515877723694 0
vt 0.46963515877723694 0.72723132371902466
vt 0.46963515877723694 0
vt 0.46963515877723694 0.72723132371902466
vt 0.48329019546508789 0
vt 0.48329019546508789 0.72723132371902466
vt 0.48329019546508789 0
vt 0.48329019546508789 0.72723132371902466
vt 0.49148321151733398 0
vt 0.49148321151733398 0.72723132371902466
vt 0.49148321151733398 0
vt 0.49148321151733398 0.72723132371902466
vt 0.49967622756958008 0
vt 0.49967622756958008 0.72723132371902466
vt 0.49967622756958008 0
vt 0.49967622756958008 0.72723132371902466
vt 0.70812630653381348 0
vt 0.70812630653381348 0.72723132371902466
vt 0.70812630653381348 0
vt 0.70812630653381348 0.72723132371902466
vt 0.72998332977294922 0
vt 0.72998332977294922 0.72723132371902466
vt 0.72998332977294922 0
vt 0.72998332977294922 0.72723132371902466
vt 0.75274169445037842 0
vt 0.75274169445037842 0.72723132371902466
vt 0.75274169445037842 0
vt 0.75274169445037842 0.72723132371902466
vt 0.77459877729415894 0
vt 0.77459877729415894 0.72723132371902466
vt 0.77459877729415894 0
vt 0.77459877729415894 0.72723132371902466
vt 0.98304885625839233 0
vt 0.98304885625839233 0.72723132371902466
vt 0.98304885625839233 0
vt 0.98304885625839233 0.72723132371902466
vt 0.99126851558685303 0
vt 0.99126851558685303 0.72723132371902466
vt 0.99126851558685303 0
vt 0.99126851558685303 0.72723132371902466
vt 1 0
vt 1 0.72723132371902466
vt 0 0.72732198238372803
vt 0 0.86366099119186401
vt 0.21630260348320007 0.99991005659103394
vt 0.23905880749225616 1
vt 0.45537644624710083 0.86366099119186401
vt 0.45537644624710083 0.72732198238372803
vt 0.44717878103256226 0.72732198238372803
vt 0.44717878103256226 0.80912536382675171
vt 0.23905882239341736 0.9454643726348877
vt 0.23907382786273956 0.72723203897476196
vt 0.21630260348320007 0.72723203897476196
vt 0.21631762385368347 0.9454643726348877
vt 0.0081976437941193581 0.80912536382675171
vt 0.0081976437941193581 0.72732198238372803
vt 0 0.99991011619567871
vt 0 0.86357110738754272
vt 0.21630260348320007 0.72732198238372803
vt 0.23905880749225616 0.72723203897476196
vt 0.45537644624710083 0.86357110738754272
vt 0.45537644624710083 0.99991011619567871
vt 0.44717878103256226 0.99991011619567871
vt 0.44717878103256226 0.91810667514801025
vt 0.23905882239341736 0.78176766633987427
vt 0.23907382786273956 1
vt 0.21630260348320007 1
vt 0.21631762385368347 0.78176766633987427
vt 0.0081976437941193581 0.91810667514801025
vt 0.0081976437941193581 0.99991011619567871
vn 0 -1 8.524084771366347E-10
vn 0 -1 8.524084771366347E-10
vn 0 -1 8.524084771366347E-10
vn 0 -1 8.524084771366347E-10
vn -0.00032035948242992163 -0.062997892498970032 -0.99801361560821533
vn -0.00032035948242992163 -0.062997892498970032 -0.99801361560821533
vn -0.00032035948242992163 -0.062997892498970032 -0.99801361560821533
vn -0.00032035948242992163 -0.062997892498970032 -0.99801361560821533
vn -0.00032099708914756775 -0.00039602650213055313 -0.99999988079071045
vn -0.00032099708914756775 -0.00039602650213055313 -0.99999988079071045
vn -0.00032099708914756775 -0.00039602650213055313 -0.99999988079071045
vn -0.00032099708914756775 -0.00039602650213055313 -0.99999988079071045
vn -0.00032035875483416021 0.063034951686859131 -0.99801129102706909
vn -0.00032035875483416021 0.063034951686859131 -0.99801129102706909
vn -0.00032035875483416021 0.063034951686859131 -0.99801129102706909
vn -0.00032035875483416021 0.063034951686859131 -0.99801129102706909
vn 0 1 8.5240853264778593E-10
vn 0 1 8.5240853264778593E-10
vn 0 1 8.5240853264778593E-10
vn 0 1 8.5240853264778593E-10
vn 0.00032099711825139821 -1.1246589437519106E-08 0.99999994039535522
vn 0.00032099711825139821 -1.1246589437519106E-08 0.99999994039535522
vn 0.00032099711825139821 -1.1246589437519106E-08 0.99999994039535522
vn 0.00032099711825139821 -1.1246589437519106E-08 0.99999994039535522
vn 0 -1 -8.5241047553807903E-10
vn 0 -1 -8.5241047553807903E-10
vn 0 -1 -8.5241047553807903E-10
vn 0 -1 -8.5241047553807903E-10
vn 0.00032030761940404773 -0.065507382154464722 0.99785202741622925
vn 0.00032030761940404773 -0.065507382154464722 0.99785202741622925
vn 0.00032030761940404773 -0.065507382154464722 0.99785202741622925
vn 0.00032030761940404773 -0.065507382154464722 0.99785202741622925
vn -2.2045918512958451E-07 0.9999997615814209 -0.00068679492687806487
vn -2.2045918512958451E-07 0.9999997615814209 -0.00068679492687806487
vn -2.2045918512958451E-07 0.9999997615814209 -0.00068679492687806487
vn -2.2045918512958451E-07 0.9999997615814209 -0.00068679492687806487
vn 0.00032099711825139821 0 0.99999994039535522
vn 0.00032099711825139821 0 0.99999994039535522
vn 0.00032099711825139821 0 0.99999994039535522
vn 0.00032099711825139821 0 0.99999994039535522
vn -2.2045918512958451E-07 -0.9999997615814209 -0.00068679492687806487
vn -2.2045918512958451E-07 -0.9999997615814209 -0.00068679492687806487
vn -2.2045918512958451E-07 -0.9999997615814209 -0.00068679492687806487
vn -2.2045918512958451E-07 -0.9999997615814209 -0.00068679492687806487
vn 0.00032030761940404773 0.065507382154464722 0.99785202741622925
vn 0.00032030761940404773 0.065507382154464722 0.99785202741622925
vn 0.00032030761940404773 0.065507382154464722 0.99785202741622925
vn 0.00032030761940404773 0.065507382154464722 0.99785202741622925
vn 0 1 -8.5241341762909428E-10
vn 0 1 -8.5241341762909428E-10
vn 0 1 -8.5241341762909428E-10
vn 0 1 -8.5241341762909428E-10
vn 0.00032099711825139821 1.1246592990232784E-08 0.99999994039535522
vn 0.00032099711825139821 1.1246592990232784E-08 0.99999994039535522
vn 0.00032099711825139821 1.1246592990232784E-08 0.99999994039535522
vn 0.00032099711825139821 1.1246592990232784E-08 0.99999994039535522
vn -0.99999994039535522 0 0.00032099711825139821
vn -0.99999994039535522 0 0.00032099711825139821
vn -0.99999994039535522 0 0.00032099711825139821
vn -0.99999994039535522 0 0.00032099711825139821
vn -0.99999994039535522 0 0.00032099711825139821
vn -0.99999994039535522 0 0.00032099711825139821
vn -0.99999994039535522 0 0.00032099711825139821
vn -0.99999994039535522 0 0.00032099711825139821
vn -0.99999994039535522 0 0.00032099711825139821
vn -0.99999994039535522 0 0.00032099711825139821
vn -0.99999994039535522 0 0.00032099711825139821
vn -0.99999994039535522 0 0.00032099711825139821
vn -0.99999994039535522 0 0.00032099711825139821
vn -0.99999994039535522 0 0.00032099711825139821
vn 0.99999994039535522 0 -0.00032099711825139821
vn 0.99999994039535522 0 -0.00032099711825139821
vn 0.99999994039535522 0 -0.00032099711825139821
vn 0.99999994039535522 0 -0.00032099711825139821
vn 0.99999994039535522 0 -0.00032099711825139821
vn 0.99999994039535522 0 -0.00032099711825139821
vn 0.99999994039535522 0 -0.00032099711825139821
vn 0.99999994039535522 0 -0.00032099711825139821
vn 0.99999994039535522 0 -0.00032099711825139821
vn 0.99999994039535522 0 -0.00032099711825139821
vn 0.99999994039535522 0 -0.00032099711825139821
vn 0.99999994039535522 0 -0.00032099711825139821
vn 0.99999994039535522 0 -0.00032099711825139821
vn 0.99999994039535522 0 -0.00032099711825139821
f 1/1/1 3/3/3 4/4/4 2/2/2
f 5/5/5 7/7/7 8/8/8 6/6/6
f 9/9/9 11/11/11 12/12/12 10/10/10
f 13/13/13 15/15/15 16/16/16 14/14/14
f 17/17/17 19/19/19 20/20/20 18/18/18
f 21/21/21 23/23/23 24/24/24 22/22/22
f 25/25/25 27/27/27 28/28/28 26/26/26
f 29/29/29 31/31/31 32/32/32 30/30/30
f 33/33/33 35/35/35 36/36/36 34/34/34
f 37/37/37 39/39/39 40/40/40 38/38/38
f 41/41/41 43/43/43 44/44/44 42/42/42
f 45/45/45 47/47/47 48/48/48 46/46/46
f 49/49/49 51/51/51 52/52/52 50/50/50
f 53/53/53 55/55/55 56/56/56 54/54/54
f 59/59/59 58/58/58 69/69/69
f 60/60/60 59/59/59 68/68/68
f 68/68/68 59/59/59 69/69/69
f 70/70/70 69/69/69 57/57/57
f 58/58/58 57/57/57 69/69/69
f 67/67/67 65/65/65 68/68/68
f 64/64/64 60/60/60 65/65/65
f 61/61/61 60/60/60 64/64/64
f 68/68/68 65/65/65 60/60/60
f 63/63/63 62/62/62 64/64/64
f 61/61/61 64/64/64 62/62/62
f 67/67/67 66/66/66 65/65/65
f 73/73/73 83/83/83 72/72/72
f 74/74/74 82/82/82 73/73/73
f 82/82/82 83/83/83 73/73/73
f 84/84/84 71/71/71 83/83/83
f 72/72/72 83/83/83 71/71/71
f 81/81/81 82/82/82 79/79/79
f 78/78/78 79/79/79 74/74/74
f 75/75/75 78/78/78 74/74/74
f 82/82/82 74/74/74 79/79/79
f 77/77/77 78/78/78 76/76/76
f 75/75/75 76/76/76 78/78/78
f 81/81/81 79/79/79 80/80/80
