v 9.0003719329833984 -3.2969851493835449 7.4166769981384277
v 11.000371932983398 -3.2969851493835449 7.4166769981384277
v 9.0003719329833984 -3.2969851493835449 7.1766767501831055
v 11.000371932983398 -3.2969851493835449 7.1766767501831055
v 9.0003719329833984 -3.2969851493835449 7.1766767501831055
v 11.000371932983398 -3.2969851493835449 7.1766767501831055
v 9.0003719329833984 -0.50039899349212646 7
v 11.000371932983398 -0.50039899349212646 7
v 9.0003719329833984 -0.50039899349212646 7
v 11.000371932983398 -0.50039899349212646 7
v 9.0003719329833984 0.49960100650787354 7
v 11.000371932983398 0.49960100650787354 7
v 9.0003719329833984 0.49960100650787354 7
v 11.000371932983398 0.49960100650787354 7
v 9.0003719329833984 3.2969851493835449 7.1766767501831055
v 11.000371932983398 3.2969851493835449 7.1766767501831055
v 9.0003719329833984 3.2969851493835449 7.1766767501831055
v 11.000371932983398 3.2969851493835449 7.1766767501831055
v 9.0003719329833984 3.2969851493835449 7.4166769981384277
v 11.000371932983398 3.2969851493835449 7.4166769981384277
v 9.0003719329833984 3.2969851493835449 7.4166769981384277
v 11.000371932983398 3.2969851493835449 7.4166769981384277
v 9.0003719329833984 0.49960100650787354 7.2399997711181641
v 11.000371932983398 0.49960100650787354 7.2399997711181641
v 9.0003719329833984 0.49960100650787354 7.2399997711181641
v 11.000371932983398 0.49960100650787354 7.2399997711181641
v 9.0003719329833984 0.49960100650787354 8.1999998092651367
v 11.000371932983398 0.49960100650787354 8.1999998092651367
v 9.0003719329833984 0.49960100650787354 8.1999998092651367
v 11.000371932983398 0.49960100650787354 8.1999998092651367
v 9.0003719329833984 -0.50039899349212646 8.1999998092651367
v 11.000371932983398 -0.50039899349212646 8.1999998092651367
v 9.0003719329833984 -0.50039899349212646 8.1999998092651367
v 11.000371932983398 -0.50039899349212646 8.1999998092651367
v 9.0003719329833984 -0.50039899349212646 7.2399997711181641
v 11.000371932983398 -0.50039899349212646 7.2399997711181641
v 9.0003719329833984 -0.50039899349212646 7.2399997711181641
v 11.000371932983398 -0.50039899349212646 7.2399997711181641
v 9.0003719329833984 -3.2969851493835449 7.4166769981384277
v 11.000371932983398 -3.2969851493835449 7.4166769981384277
v 9.0003719329833984 -3.2969851493835449 7.4166769981384277
v 9.0003719329833984 -3.2969851493835449 7.1766767501831055
v 9.0003719329833984 -0.50039899349212646 7
v 9.0003719329833984 0.49960100650787354 7
v 9.0003719329833984 3.2969851493835449 7.1766767501831055
v 9.0003719329833984 3.2969851493835449 7.4166769981384277
v 9.0003719329833984 0.49960100650787354 7.2399997711181641
v 9.0003719329833984 0.49960100650787354 8.1999998092651367
v 9.0003719329833984 -0.50039899349212646 8.1999998092651367
v 9.0003719329833984 -0.50039899349212646 7.2399997711181641
v 11.000371932983398 -3.2969851493835449 7.4166769981384277
v 11.000371932983398 -3.2969851493835449 7.1766767501831055
v 11.000371932983398 -0.50039899349212646 7
v 11.000371932983398 0.49960100650787354 7
v 11.000371932983398 3.2969851493835449 7.1766767501831055
v 11.000371932983398 3.2969851493835449 7.4166769981384277
v 11.000371932983398 0.49960100650787354 7.2399997711181641
v 11.000371932983398 0.49960100650787354 8.1999998092651367
v 11.000371932983398 -0.50039899349212646 8.1999998092651367
v 11.000371932983398 -0.50039899349212646 7.2399997711181641
vt 0 0
vt 0 0.72727221250534058
vt 0.015374524518847466 0
vt 0.015374524518847466 0.72727221250534058
vt 0.015374524518847466 0
vt 0.015374524518847466 0.72727221250534058
vt 0.19488243758678436 0
vt 0.19488243758678436 0.72727221250534058
vt 0.19488243758678436 0
vt 0.19488243758678436 0.72727221250534058
vt 0.25894296169281006 0
vt 0.25894296169281006 0.72727221250534058
vt 0.25894296169281006 0
vt 0.25894296169281006 0.72727221250534058
vt 0.43850189447402954 0
vt 0.43850189447402954 0.72727221250534058
vt 0.43850189447402954 0
vt 0.43850189447402954 0.72727221250534058
vt 0.45387643575668335 0
vt 0.45387643575668335 0.72727221250534058
vt 0.45387643575668335 0
vt 0.45387643575668335 0.72727221250534058
vt 0.63343536853790283 0
vt 0.63343536853790283 0.72727221250534058
vt 0.63343536853790283 0
vt 0.63343536853790283 0.72727221250534058
vt 0.69493347406387329 0
vt 0.69493347406387329 0.72727221250534058
vt 0.69493347406387329 0
vt 0.69493347406387329 0.72727221250534058
vt 0.75899398326873779 0
vt 0.75899398326873779 0.72727221250534058
vt 0.75899398326873779 0
vt 0.75899398326873779 0.72727221250534058
vt 0.82049208879470825 0
vt 0.82049208879470825 0.72727221250534058
vt 0.82049208879470825 0
vt 0.82049208879470825 0.72727221250534058
vt 1 0
vt 1 0.72727221250534058
vt 0 0.9053007960319519
vt 0 0.95984619855880737
vt 0.17915076017379761 1
vt 0.2432112842798233 1
vt 0.422413170337677 0.95984619855880737
vt 0.422413170337677 0.9053007960319519
vt 0.2432112842798233 0.94545459747314453
vt 0.2432112842798233 0.72727292776107788
vt 0.17915076017379761 0.72727292776107788
vt 0.17915076017379761 0.94545459747314453
vt 0 0.82197213172912598
vt 0 0.76742672920227051
vt 0.17915076017379761 0.72727292776107788
vt 0.2432112842798233 0.72727292776107788
vt 0.422413170337677 0.76742672920227051
vt 0.422413170337677 0.82197213172912598
vt 0.2432112842798233 0.78181833028793335
vt 0.2432112842798233 1
vt 0.17915076017379761 1
vt 0.17915076017379761 0.78181833028793335
vn 0 -1 0
vn 0 -1 0
vn 0 -1 0
vn 0 -1 0
vn 0 -0.063050217926502228 -0.99801033735275269
vn 0 -0.063050217926502228 -0.99801033735275269
vn 0 -0.063050217926502228 -0.99801033735275269
vn 0 -0.063050217926502228 -0.99801033735275269
vn 0 0 -1
vn 0 0 -1
vn 0 0 -1
vn 0 0 -1
vn 0 0.063032306730747223 -0.99801146984100342
vn 0 0.063032306730747223 -0.99801146984100342
vn 0 0.063032306730747223 -0.99801146984100342
vn 0 0.063032306730747223 -0.99801146984100342
vn 0 1 0
vn 0 1 0
vn 0 1 0
vn 0 1 0
vn 0 -0.063032306730747223 0.99801146984100342
vn 0 -0.063032306730747223 0.99801146984100342
vn 0 -0.063032306730747223 0.99801146984100342
vn 0 -0.063032306730747223 0.99801146984100342
vn 0 1 0
vn 0 1 0
vn 0 1 0
vn 0 1 0
vn 0 0 1
vn 0 0 1
vn 0 0 1
vn 0 0 1
vn 0 -1 0
vn 0 -1 0
vn 0 -1 0
vn 0 -1 0
vn 0 0.063050217926502228 0.99801033735275269
vn 0 0.063050217926502228 0.99801033735275269
vn 0 0.063050217926502228 0.99801033735275269
vn 0 0.063050217926502228 0.99801033735275269
vn -1 0 0
vn -1 0 0
vn -1 0 0
vn -1 0 0
vn -1 0 0
vn -1 0 0
vn -1 0 0
vn -1 0 0
vn -1 0 0
vn -1 0 0
vn 1 0 0
vn 1 0 0
vn 1 0 0
vn 1 0 0
vn 1 0 0
vn 1 0 0
vn 1 0 0
vn 1 0 0
vn 1 0 0
vn 1 0 0
f 1/1/1 3/3/3 4/4/4 2/2/2
f 5/5/5 7/7/7 8/8/8 6/6/6
f 9/9/9 11/11/11 12/12/12 10/10/10
f 13/13/13 15/15/15 16/16/16 14/14/14
f 17/17/17 19/19/19 20/20/20 18/18/18
f 21/21/21 23/23/23 24/24/24 22/22/22
f 25/25/25 27/27/27 28/28/28 26/26/26
f 29/29/29 31/31/31 32/32/32 30/30/30
f 33/33/33 35/35/35 36/36/36 34/34/34
f 37/37/37 39/39/39 40/40/40 38/38/38
f 50/50/50 43/43/43 42/42/42
f 42/42/42 41/41/41 50/50/50
f 47/47/47 50/50/50 49/49/49
f 50/50/50 44/44/44 43/43/43
f 47/47/47 45/45/45 44/44/44
f 45/45/45 47/47/47 46/46/46
f 49/49/49 48/48/48 47/47/47
f 50/50/50 47/47/47 44/44/44
f 60/60/60 52/52/52 53/53/53
f 52/52/52 60/60/60 51/51/51
f 57/57/57 59/59/59 60/60/60
f 60/60/60 53/53/53 54/54/54
f 57/57/57 54/54/54 55/55/55
f 55/55/55 56/56/56 57/57/57
f 59/59/59 57/57/57 58/58/58
f 60/60/60 54/54/54 57/57/57
