v 3.5961873531341553 0 1.2116603851318359
v -3.4038126468658447 0 1.2116603851318359
v 3.5961873531341553 0 1.4516603946685791
v -3.4038126468658447 0 1.4516603946685791
v 3.5961873531341553 0 1.4516603946685791
v -3.4038126468658447 0 1.4516603946685791
v 3.5961873531341553 0.10000000149011612 1.4516603946685791
v -3.4038126468658447 0.10000000149011612 1.4516603946685791
v 3.5961873531341553 0.10000000149011612 1.4516603946685791
v -3.4038126468658447 0.10000000149011612 1.4516603946685791
v 3.5961873531341553 0.099934041500091553 1.2116208076477051
v -3.4038126468658447 0.099934041500091553 1.2116208076477051
v 3.5961873531341553 0.099934041500091553 1.2116208076477051
v -3.4038126468658447 0.099934041500091553 1.2116208076477051
v 3.5961873531341553 0 1.2116603851318359
v -3.4038126468658447 0 1.2116603851318359
v 3.5961873531341553 0 1.2116603851318359
v 3.5961873531341553 0 1.4516603946685791
v 3.5961873531341553 0.10000000149011612 1.4516603946685791
v 3.5961873531341553 0.099934041500091553 1.2116208076477051
v -3.4038126468658447 0 1.2116603851318359
v -3.4038126468658447 0 1.4516603946685791
v -3.4038126468658447 0.10000000149011612 1.4516603946685791
v -3.4038126468658447 0.099934041500091553 1.2116208076477051
vt 0 0
vt 0 1
vt 0.31284487247467041 0
vt 0.31284487247467041 1
vt 0.31284487247467041 0
vt 0.31284487247467041 1
vt 0.44319692254066467 0
vt 0.44319692254066467 1
vt 0.44319692254066467 0
vt 0.44319692254066467 1
vt 0.75609338283538818 0
vt 0.75609338283538818 1
vt 0.75609338283538818 0
vt 0.75609338283538818 1
vt 0.88635945320129395 0
vt 0.88635945320129395 1
vt 0.88636034727096558 5.6537905948061962E-06
vt 0.88636034727096558 0.03429136797785759
vt 1 0.03429136797785759
vt 0.99992501735687256 0
vt 0.88636034727096558 0.99999433755874634
vt 0.88636034727096558 0.96570861339569092
vt 1 0.96570861339569092
vt 0.99992501735687256 1
vn 0 -1 0
vn 0 -1 0
vn 0 -1 0
vn 0 -1 0
vn 0 0 1
vn 0 0 1
vn 0 0 1
vn 0 0 1
vn 0 0.99999994039535522 -0.00027479170239530504
vn 0 0.99999994039535522 -0.00027479170239530504
vn 0 0.99999994039535522 -0.00027479170239530504
vn 0 0.99999994039535522 -0.00027479170239530504
vn 0 -0.00039602653123438358 -0.99999994039535522
vn 0 -0.00039602653123438358 -0.99999994039535522
vn 0 -0.00039602653123438358 -0.99999994039535522
vn 0 -0.00039602653123438358 -0.99999994039535522
vn 1 0 0
vn 1 0 0
vn 1 0 0
vn 1 0 0
vn -1 0 0
vn -1 0 0
vn -1 0 0
vn -1 0 0
f 1/1/1 3/3/3 4/4/4 2/2/2
f 5/5/5 7/7/7 8/8/8 6/6/6
f 9/9/9 11/11/11 12/12/12 10/10/10
f 13/13/13 15/15/15 16/16/16 14/14/14
f 19/19/19 18/18/18 17/17/17
f 17/17/17 20/20/20 19/19/19
f 23/23/23 21/21/21 22/22/22
f 21/21/21 23/23/23 24/24/24
