v 7.5 7.000396 0.5006596
v -27.5 6.999604 0.4993404
v 7.4996285 7.6003957 10.00026
v -27.500372 7.599604 9.998941
v 7.4996285 7.6003957 10.00026
v -27.500372 7.599604 9.998941
v 7.4996147 8.200396 10.00026
v -27.500385 8.199604 9.998941
v 7.4996147 8.200396 10.00026
v -27.500385 8.199604 9.998941
v 7.4996285 8.200396 9.640261
v -27.500372 8.199604 9.638942
v 7.4996285 8.200396 9.640261
v -27.500372 8.199604 9.638942
v 7.4996367 7.840396 9.640261
v -27.500364 7.8396044 9.638942
v 7.4996367 7.840396 9.640261
v -27.500364 7.8396044 9.638942
v 7.4999948 7.2403955 0.50065964
v -27.500006 7.2396045 0.49934042
v 7.4999948 7.2403955 0.50065964
v -27.500006 7.2396045 0.49934042
v 7.5 7.000396 0.5006596
v -27.5 6.999604 0.4993404
v 7.5 7.000396 0.5006596
v 7.4996285 7.6003957 10.00026
v 7.4996147 8.200396 10.00026
v 7.4996285 8.200396 9.640261
v 7.4996367 7.840396 9.640261
v 7.4999948 7.2403955 0.50065964
v -27.5 6.999604 0.4993404
v -27.500372 7.599604 9.998941
v -27.500385 8.199604 9.998941
v -27.500372 8.199604 9.638942
v -27.500364 7.8396044 9.638942
v -27.500006 7.2396045 0.49934042
v 7.5 7.000396 -0.5006596
v -27.5 6.999604 -0.4993404
v 7.4999948 7.2403955 -0.50065964
v -27.500006 7.2396045 -0.49934042
v 7.4999948 7.2403955 -0.50065964
v -27.500006 7.2396045 -0.49934042
v 7.4996367 7.840396 -9.640261
v -27.500364 7.8396044 -9.638942
v 7.4996367 7.840396 -9.640261
v -27.500364 7.8396044 -9.638942
v 7.4996285 8.200396 -9.640261
v -27.500372 8.199604 -9.638942
v 7.4996285 8.200396 -9.640261
v -27.500372 8.199604 -9.638942
v 7.4996147 8.200396 -10.00026
v -27.500385 8.199604 -9.998941
v 7.4996147 8.200396 -10.00026
v -27.500385 8.199604 -9.998941
v 7.4996285 7.6003957 -10.00026
v -27.500372 7.599604 -9.998941
v 7.4996285 7.6003957 -10.00026
v -27.500372 7.599604 -9.998941
v 7.5 7.000396 -0.5006596
v -27.5 6.999604 -0.4993404
v 7.5 7.000396 -0.5006596
v 7.4999948 7.2403955 -0.50065964
v 7.4996367 7.840396 -9.640261
v 7.4996285 8.200396 -9.640261
v 7.4996147 8.200396 -10.00026
v 7.4996285 7.6003957 -10.00026
v -27.5 6.999604 -0.4993404
v -27.500006 7.2396045 -0.49934042
v -27.500364 7.8396044 -9.638942
v -27.500372 8.199604 -9.638942
v -27.500385 8.199604 -9.998941
v -27.500372 7.599604 -9.998941
vt 0.000000 0.000000
vt 0.000000 1.000000
vt 0.381895 0.000000
vt 0.381895 1.000000
vt 0.381895 0.000000
vt 0.381895 1.000000
vt 0.401288 0.000000
vt 0.401288 1.000000
vt 0.401288 0.000000
vt 0.401288 1.000000
vt 0.412925 0.000000
vt 0.412925 1.000000
vt 0.412925 0.000000
vt 0.412925 1.000000
vt 0.424561 0.000000
vt 0.424561 1.000000
vt 0.424561 0.000000
vt 0.424561 1.000000
vt 0.720612 0.000000
vt 0.720612 1.000000
vt 0.720612 0.000000
vt 0.720612 1.000000
vt 0.946990 0.000000
vt 0.946990 1.000000
vt 1.000000 0.271417
vt 0.973496 0.000000
vt 0.946991 0.000000
vt 0.946991 0.010286
vt 0.962894 0.010286
vt 0.989398 0.271417
vt 1.000000 0.000000
vt 0.973496 0.271417
vt 0.946991 0.271417
vt 0.946991 0.261131
vt 0.962894 0.261131
vt 0.989398 0.000000
vt 0.000000 0.000000
vt 0.000000 1.000000
vt 0.226379 0.000000
vt 0.226379 1.000000
vt 0.226379 0.000000
vt 0.226379 1.000000
vt 0.522430 0.000000
vt 0.522430 1.000000
vt 0.522430 0.000000
vt 0.522430 1.000000
vt 0.534066 0.000000
vt 0.534066 1.000000
vt 0.534066 0.000000
vt 0.534066 1.000000
vt 0.545702 0.000000
vt 0.545702 1.000000
vt 0.545702 0.000000
vt 0.545702 1.000000
vt 0.565095 0.000000
vt 0.565095 1.000000
vt 0.565095 0.000000
vt 0.565095 1.000000
vt 0.946990 0.000000
vt 0.946990 1.000000
vt 1.000000 0.000000
vt 0.989398 0.000000
vt 0.962894 0.261131
vt 0.946991 0.261131
vt 0.946991 0.271417
vt 0.973496 0.271417
vt 1.000000 0.271417
vt 0.989398 0.271417
vt 0.962894 0.010286
vt 0.946991 0.010286
vt 0.946991 0.000000
vt 0.973496 0.000000
vn 2.0194278E-05 -0.9980113 0.063034944
vn 2.0194278E-05 -0.9980113 0.063034944
vn 2.0194278E-05 -0.9980113 0.063034944
vn 2.0194278E-05 -0.9980113 0.063034944
vn -3.7691934E-05 -1.3069315E-15 1
vn -3.7691934E-05 -1.3069315E-15 1
vn -3.7691934E-05 -1.3069315E-15 1
vn -3.7691934E-05 -1.3069315E-15 1
vn -2.2615162E-05 1 6.0655696E-16
vn -2.2615162E-05 1 6.0655696E-16
vn -2.2615162E-05 1 6.0655696E-16
vn -2.2615162E-05 1 6.0655696E-16
vn 3.7691934E-05 3.2006662E-16 -1
vn 3.7691934E-05 3.2006662E-16 -1
vn 3.7691934E-05 3.2006662E-16 -1
vn 3.7691934E-05 3.2006662E-16 -1
vn -2.0097486E-05 0.9978521 -0.065507375
vn -2.0097486E-05 0.9978521 -0.065507375
vn -2.0097486E-05 0.9978521 -0.065507375
vn -2.0097486E-05 0.9978521 -0.065507375
vn 3.7691934E-05 5.8363987E-08 -1
vn 3.7691934E-05 5.8363987E-08 -1
vn 3.7691934E-05 5.8363987E-08 -1
vn 3.7691934E-05 5.8363987E-08 -1
vn 1 2.2615162E-05 3.7691934E-05
vn 1 2.2615162E-05 3.7691934E-05
vn 1 2.2615162E-05 3.7691934E-05
vn 1 2.2615162E-05 3.7691934E-05
vn 1 2.2615162E-05 3.7691934E-05
vn 1 2.2615162E-05 3.7691934E-05
vn -1 -2.2615162E-05 -3.7691934E-05
vn -1 -2.2615162E-05 -3.7691934E-05
vn -1 -2.2615162E-05 -3.7691934E-05
vn -1 -2.2615162E-05 -3.7691934E-05
vn -1 -2.2615162E-05 -3.7691934E-05
vn -1 -2.2615162E-05 -3.7691934E-05
vn 3.7691934E-05 5.8363987E-08 1
vn 3.7691934E-05 5.8363987E-08 1
vn 3.7691934E-05 5.8363987E-08 1
vn 3.7691934E-05 5.8363987E-08 1
vn -2.0097486E-05 0.9978521 0.065507375
vn -2.0097486E-05 0.9978521 0.065507375
vn -2.0097486E-05 0.9978521 0.065507375
vn -2.0097486E-05 0.9978521 0.065507375
vn 3.7691934E-05 3.2006662E-16 1
vn 3.7691934E-05 3.2006662E-16 1
vn 3.7691934E-05 3.2006662E-16 1
vn 3.7691934E-05 3.2006662E-16 1
vn -2.2615162E-05 1 -6.0655696E-16
vn -2.2615162E-05 1 -6.0655696E-16
vn -2.2615162E-05 1 -6.0655696E-16
vn -2.2615162E-05 1 -6.0655696E-16
vn -3.7691934E-05 -1.3069315E-15 -1
vn -3.7691934E-05 -1.3069315E-15 -1
vn -3.7691934E-05 -1.3069315E-15 -1
vn -3.7691934E-05 -1.3069315E-15 -1
vn 2.0194278E-05 -0.9980113 -0.063034944
vn 2.0194278E-05 -0.9980113 -0.063034944
vn 2.0194278E-05 -0.9980113 -0.063034944
vn 2.0194278E-05 -0.9980113 -0.063034944
vn 1 2.2615162E-05 -3.7691934E-05
vn 1 2.2615162E-05 -3.7691934E-05
vn 1 2.2615162E-05 -3.7691934E-05
vn 1 2.2615162E-05 -3.7691934E-05
vn 1 2.2615162E-05 -3.7691934E-05
vn 1 2.2615162E-05 -3.7691934E-05
vn -1 -2.2615162E-05 3.7691934E-05
vn -1 -2.2615162E-05 3.7691934E-05
vn -1 -2.2615162E-05 3.7691934E-05
vn -1 -2.2615162E-05 3.7691934E-05
vn -1 -2.2615162E-05 3.7691934E-05
vn -1 -2.2615162E-05 3.7691934E-05

g mesh_slab0
f 1/1/1 3/3/3 2/2/2
f 5/5/5 7/7/7 6/6/6
f 9/9/9 11/11/11 12/12/12
f 13/13/13 15/15/15 14/14/14
f 17/17/17 19/19/19 20/20/20
f 21/21/21 23/23/23 24/24/24
f 25/25/25 30/30/30 29/29/29
f 27/27/27 26/26/26 29/29/29
f 25/25/25 29/29/29 26/26/26
f 28/28/28 27/27/27 29/29/29
f 31/31/31 35/35/35 36/36/36
f 33/33/33 35/35/35 32/32/32
f 31/31/31 32/32/32 35/35/35
f 34/34/34 35/35/35 33/33/33
f 37/37/37 39/39/39 38/38/38
f 41/41/41 43/43/43 42/42/42
f 45/45/45 47/47/47 48/48/48
f 49/49/49 51/51/51 50/50/50
f 53/53/53 55/55/55 56/56/56
f 57/57/57 59/59/59 60/60/60
f 65/65/65 63/63/63 66/66/66
f 61/61/61 66/66/66 63/63/63
f 64/64/64 63/63/63 65/65/65
f 61/61/61 63/63/63 62/62/62
f 71/71/71 72/72/72 69/69/69
f 67/67/67 69/69/69 72/72/72
f 70/70/70 71/71/71 69/69/69
f 67/67/67 68/68/68 69/69/69
f 3/3/3 4/4/4 2/2/2
f 7/7/7 8/8/8 6/6/6
f 9/9/9 12/12/12 10/10/10
f 15/15/15 16/16/16 14/14/14
f 17/17/17 20/20/20 18/18/18
f 21/21/21 24/24/24 22/22/22
f 39/39/39 40/40/40 38/38/38
f 43/43/43 44/44/44 42/42/42
f 45/45/45 48/48/48 46/46/46
f 51/51/51 52/52/52 50/50/50
f 53/53/53 56/56/56 54/54/54
f 57/57/57 60/60/60 58/58/58
