v 0.49962837 0 0.499601
v 0.49962837 7 0.499601
v 0.49962837 0 -0.500399
v 0.49962837 7 -0.500399
v 0.49962837 0 -0.500399
v 0.49962837 7 -0.500399
v -0.50037163 0 -0.500399
v -0.50037163 7 -0.500399
v -0.50037163 0 -0.500399
v -0.50037163 7 -0.500399
v -0.50037163 0 0.499601
v -0.50037163 7 0.499601
v -0.50037163 0 0.499601
v -0.50037163 7 0.499601
v 0.49962837 0 0.499601
v 0.49962837 7 0.499601
v 0.49962837 0 0.499601
v 0.49962837 0 -0.500399
v -0.50037163 0 -0.500399
v -0.50037163 0 0.499601
v 0.49962837 7 0.499601
v 0.49962837 7 -0.500399
v -0.50037163 7 -0.500399
v -0.50037163 7 0.499601
v -19.500372 0 0.499601
v -19.500372 7 0.499601
v -19.500372 0 -0.500399
v -19.500372 7 -0.500399
v -19.500372 0 -0.500399
v -19.500372 7 -0.500399
v -20.500372 0 -0.500399
v -20.500372 7 -0.500399
v -20.500372 0 -0.500399
v -20.500372 7 -0.500399
v -20.500372 0 0.499601
v -20.500372 7 0.499601
v -20.500372 0 0.499601
v -20.500372 7 0.499601
v -19.500372 0 0.499601
v -19.500372 7 0.499601
v -19.500372 0 0.499601
v -19.500372 0 -0.500399
v -20.500372 0 -0.500399
v -20.500372 0 0.499601
v -19.500372 7 0.499601
v -19.500372 7 -0.500399
v -20.500372 7 -0.500399
v -20.500372 7 0.499601
vt 0.000000 0.000000
vt 0.000000 1.000000
vt 0.208333 0.000000
vt 0.208333 1.000000
vt 0.208333 0.000000
vt 0.208333 1.000000
vt 0.416666 0.000000
vt 0.416666 1.000000
vt 0.416666 0.000000
vt 0.416666 1.000000
vt 0.624999 0.000000
vt 0.624999 1.000000
vt 0.624999 0.000000
vt 0.624999 1.000000
vt 0.833333 0.000000
vt 0.833333 1.000000
vt 0.833333 0.142857
vt 1.000000 0.142857
vt 1.000000 0.000000
vt 0.833333 0.000000
vt 0.833333 0.857143
vt 1.000000 0.857143
vt 1.000000 1.000000
vt 0.833333 1.000000
vt 0.000000 0.000000
vt 0.000000 1.000000
vt 0.208333 0.000000
vt 0.208333 1.000000
vt 0.208333 0.000000
vt 0.208333 1.000000
vt 0.416666 0.000000
vt 0.416666 1.000000
vt 0.416666 0.000000
vt 0.416666 1.000000
vt 0.624999 0.000000
vt 0.624999 1.000000
vt 0.624999 0.000000
vt 0.624999 1.000000
vt 0.833333 0.000000
vt 0.833333 1.000000
vt 0.833333 0.142857
vt 1.000000 0.142857
vt 1.000000 0.000000
vt 0.833333 0.000000
vt 0.833333 0.857143
vt 1.000000 0.857143
vt 1.000000 1.000000
vt 0.833333 1.000000
vn 1 0 0
vn 1 0 0
vn 1 0 0
vn 1 0 0
vn -0 0 -1
vn -0 0 -1
vn -0 0 -1
vn -0 0 -1
vn -1 0 0
vn -1 0 0
vn -1 0 0
vn -1 0 0
vn -0 -0 1
vn -0 -0 1
vn -0 -0 1
vn -0 -0 1
vn 0 -1 -0
vn 0 -1 -0
vn 0 -1 -0
vn 0 -1 -0
vn -0 1 0
vn -0 1 0
vn -0 1 0
vn -0 1 0
vn 1 0 0
vn 1 0 0
vn 1 0 0
vn 1 0 0
vn -0 0 -1
vn -0 0 -1
vn -0 0 -1
vn -0 0 -1
vn -1 0 0
vn -1 0 0
vn -1 0 0
vn -1 0 0
vn -0 -0 1
vn -0 -0 1
vn -0 -0 1
vn -0 -0 1
vn 0 -1 -0
vn 0 -1 -0
vn 0 -1 -0
vn 0 -1 -0
vn -0 1 0
vn -0 1 0
vn -0 1 0
vn -0 1 0

g mesh_columns0
f 1/1/1 3/3/3 4/4/4
f 5/5/5 7/7/7 8/8/8
f 9/9/9 11/11/11 12/12/12
f 13/13/13 15/15/15 16/16/16
f 18/18/18 17/17/17 20/20/20
f 20/20/20 19/19/19 18/18/18
f 22/22/22 24/24/24 21/21/21
f 24/24/24 22/22/22 23/23/23
f 25/25/25 27/27/27 28/28/28
f 29/29/29 31/31/31 32/32/32
f 33/33/33 35/35/35 36/36/36
f 37/37/37 39/39/39 40/40/40
f 42/42/42 41/41/41 44/44/44
f 44/44/44 43/43/43 42/42/42
f 46/46/46 48/48/48 45/45/45
f 48/48/48 46/46/46 47/47/47
f 1/1/1 4/4/4 2/2/2
f 5/5/5 8/8/8 6/6/6
f 9/9/9 12/12/12 10/10/10
f 13/13/13 16/16/16 14/14/14
f 25/25/25 28/28/28 26/26/26
f 29/29/29 32/32/32 30/30/30
f 33/33/33 36/36/36 34/34/34
f 37/37/37 40/40/40 38/38/38
