v -27.5 7 0
v 7.5 7 0
v -27.5 8.2 0
v 7.5 8.2 0
v -27.5 8.2 0
v 7.5 8.2 0
v -27.5 8.2 0.5
v 7.5 8.2 0.5
v -27.5 8.2 0.5
v 7.5 8.2 0.5
v -27.5 6.999802 0.4996702
v 7.5 6.999802 0.4996702
v -27.5 6.999802 0.4996702
v 7.5 6.999802 0.4996702
v -27.5 7 0
v 7.5 7 0
v -27.5 7 0
v -27.5 8.2 0
v -27.5 8.2 0.5
v -27.5 6.999802 0.4996702
v 7.5 7 0
v 7.5 8.2 0
v 7.5 8.2 0.5
v 7.5 6.999802 0.4996702
vt 0.000000 0.000000
vt 0.000000 1.000000
vt 0.312845 0.000000
vt 0.312845 1.000000
vt 0.312845 0.000000
vt 0.312845 1.000000
vt 0.443197 0.000000
vt 0.443197 1.000000
vt 0.443197 0.000000
vt 0.443197 1.000000
vt 0.756093 0.000000
vt 0.756093 1.000000
vt 0.756093 0.000000
vt 0.756093 1.000000
vt 0.886359 0.000000
vt 0.886359 1.000000
vt 0.886360 0.000006
vt 0.886360 0.034291
vt 1.000000 0.034291
vt 0.999925 0.000000
vt 0.886360 0.999994
vt 0.886360 0.965709
vt 1.000000 0.965709
vt 0.999925 1.000000
vn -0 0 -1
vn -0 0 -1
vn -0 0 -1
vn -0 0 -1
vn -0 1 -0
vn -0 1 -0
vn -0 1 -0
vn -0 1 -0
vn -0 -0.0002747917 0.99999994
vn -0 -0.0002747917 0.99999994
vn -0 -0.0002747917 0.99999994
vn -0 -0.0002747917 0.99999994
vn 0 -0.99999994 -0.00039602653
vn 0 -0.99999994 -0.00039602653
vn 0 -0.99999994 -0.00039602653
vn 0 -0.99999994 -0.00039602653
vn -1 -0 -0
vn -1 -0 -0
vn -1 -0 -0
vn -1 -0 -0
vn 1 0 0
vn 1 0 0
vn 1 0 0
vn 1 0 0

g mesh_long_sectiion0
f 1/1/1 3/3/3 4/4/4
f 5/5/5 7/7/7 8/8/8
f 9/9/9 11/11/11 12/12/12
f 13/13/13 15/15/15 16/16/16
f 19/19/19 18/18/18 17/17/17
f 17/17/17 20/20/20 19/19/19
f 23/23/23 21/21/21 22/22/22
f 21/21/21 23/23/23 24/24/24
f 1/1/1 4/4/4 2/2/2
f 5/5/5 8/8/8 6/6/6
f 9/9/9 12/12/12 10/10/10
f 13/13/13 16/16/16 14/14/14
