v -7.5 -0.50065958499908447 7.0003957748413086
v 27.5 -0.49934038519859314 6.9996042251586914
v -7.4999947547912598 -0.50065964460372925 7.2403955459594727
v 27.500005722045898 -0.49934041500091553 7.2396044731140137
v -7.4999947547912598 -0.50065964460372925 7.2403955459594727
v 27.500005722045898 -0.49934041500091553 7.2396044731140137
v -7.4996366500854492 -9.6402606964111328 7.8403959274291992
v 27.500364303588867 -9.638941764831543 7.839604377746582
v -7.4996366500854492 -9.6402606964111328 7.8403959274291992
v 27.500364303588867 -9.638941764831543 7.839604377746582
v -7.4996285438537598 -9.6402606964111328 8.2003955841064453
v 27.500371932983398 -9.638941764831543 8.1996040344238281
v -7.4996285438537598 -9.6402606964111328 8.2003955841064453
v 27.500371932983398 -9.638941764831543 8.1996040344238281
v -7.4996147155761719 -10.000260353088379 8.2003955841064453
v 27.500385284423828 -9.9989414215087891 8.1996040344238281
v -7.4996147155761719 -10.000260353088379 8.2003955841064453
v 27.500385284423828 -9.9989414215087891 8.1996040344238281
v -7.4996285438537598 -10.000260353088379 7.600395679473877
v 27.500371932983398 -9.9989414215087891 7.5996041297912598
v -7.4996285438537598 -10.000260353088379 7.600395679473877
v 27.500371932983398 -9.9989414215087891 7.5996041297912598
v -7.5 -0.50065958499908447 7.0003957748413086
v 27.5 -0.49934038519859314 6.9996042251586914
v -7.5 -0.50065958499908447 7.0003957748413086
v -7.4999947547912598 -0.50065964460372925 7.2403955459594727
v -7.4996366500854492 -9.6402606964111328 7.8403959274291992
v -7.4996285438537598 -9.6402606964111328 8.2003955841064453
v -7.4996147155761719 -10.000260353088379 8.2003955841064453
v -7.4996285438537598 -10.000260353088379 7.600395679473877
v 27.5 -0.49934038519859314 6.9996042251586914
v 27.500005722045898 -0.49934041500091553 7.2396044731140137
v 27.500364303588867 -9.638941764831543 7.839604377746582
v 27.500371932983398 -9.638941764831543 8.1996040344238281
v 27.500385284423828 -9.9989414215087891 8.1996040344238281
v 27.500371932983398 -9.9989414215087891 7.5996041297912598
v -7.5 0.50065958499908447 7.0003957748413086
v 27.5 0.49934038519859314 6.9996042251586914
v -7.4996285438537598 10.000260353088379 7.600395679473877
v 27.500371932983398 9.9989414215087891 7.5996041297912598
v -7.4996285438537598 10.000260353088379 7.600395679473877
v 27.500371932983398 9.9989414215087891 7.5996041297912598
v -7.4996147155761719 10.000260353088379 8.2003955841064453
v 27.500385284423828 9.9989414215087891 8.1996040344238281
v -7.4996147155761719 10.000260353088379 8.2003955841064453
v 27.500385284423828 9.9989414215087891 8.1996040344238281
v -7.4996285438537598 9.6402606964111328 8.2003955841064453
v 27.500371932983398 9.638941764831543 8.1996040344238281
v -7.4996285438537598 9.6402606964111328 8.2003955841064453
v 27.500371932983398 9.638941764831543 8.1996040344238281
v -7.4996366500854492 9.6402606964111328 7.8403959274291992
v 27.500364303588867 9.638941764831543 7.839604377746582
v -7.4996366500854492 9.6402606964111328 7.8403959274291992
v 27.500364303588867 9.638941764831543 7.839604377746582
v -7.4999947547912598 0.50065964460372925 7.2403955459594727
v 27.500005722045898 0.49934041500091553 7.2396044731140137
v -7.4999947547912598 0.50065964460372925 7.2403955459594727
v 27.500005722045898 0.49934041500091553 7.2396044731140137
v -7.5 0.50065958499908447 7.0003957748413086
v 27.5 0.49934038519859314 6.9996042251586914
v -7.5 0.50065958499908447 7.0003957748413086
v -7.4996285438537598 10.000260353088379 7.600395679473877
v -7.4996147155761719 10.000260353088379 8.2003955841064453
v -7.4996285438537598 9.6402606964111328 8.2003955841064453
v -7.4996366500854492 9.6402606964111328 7.8403959274291992
v -7.4999947547912598 0.50065964460372925 7.2403955459594727
v 27.5 0.49934038519859314 6.9996042251586914
v 27.500371932983398 9.9989414215087891 7.5996041297912598
v 27.500385284423828 9.9989414215087891 8.1996040344238281
v 27.500371932983398 9.638941764831543 8.1996040344238281
v 27.500364303588867 9.638941764831543 7.839604377746582
v 27.500005722045898 0.49934041500091553 7.2396044731140137
vt 0 0
vt 0 1
vt 0.22637872397899628 0
vt 0.22637872397899628 1
vt 0.22637872397899628 0
vt 0.22637872397899628 1
vt 0.52242976427078247 0
vt 0.52242976427078247 1
vt 0.52242976427078247 0
vt 0.52242976427078247 1
vt 0.534065842628479 0
vt 0.534065842628479 1
vt 0.534065842628479 0
vt 0.534065842628479 1
vt 0.54570198059082031 0
vt 0.54570198059082031 1
vt 0.54570198059082031 0
vt 0.54570198059082031 1
vt 0.56509548425674438 0
vt 0.56509548425674438 1
vt 0.56509548425674438 0
vt 0.56509548425674438 1
vt 0.94699043035507202 0
vt 0.94699043035507202 1
vt 1 0
vt 0.9893983006477356 3.9436512389023903E-10
vt 0.96289396286010742 0.26113146543502808
vt 0.94699138402938843 0.26113146543502808
vt 0.94699138402938843 0.27141717076301575
vt 0.97349566221237183 0.27141717076301575
vt 1 0.27141717076301575
vt 0.9893983006477356 0.27141717076301575
vt 0.96289396286010742 0.010285714641213417
vt 0.94699138402938843 0.010285714641213417
vt 0.94699138402938843 0
vt 0.97349566221237183 0
vt 0 0
vt 0 1
vt 0.38189491629600525 0
vt 0.38189491629600525 1
vt 0.38189491629600525 0
vt 0.38189491629600525 1
vt 0.40128844976425171 0
vt 0.40128844976425171 1
vt 0.40128844976425171 0
vt 0.40128844976425171 1
vt 0.41292455792427063 0
vt 0.41292455792427063 1
vt 0.41292455792427063 0
vt 0.41292455792427063 1
vt 0.42456066608428955 0
vt 0.42456066608428955 1
vt 0.42456066608428955 0
vt 0.42456066608428955 1
vt 0.72061169147491455 0
vt 0.72061169147491455 1
vt 0.72061169147491455 0
vt 0.72061169147491455 1
vt 0.94699043035507202 0
vt 0.94699043035507202 1
vt 1 0.27141717076301575
vt 0.97349566221237183 0
vt 0.94699138402938843 0
vt 0.94699138402938843 0.010285714641213417
vt 0.96289396286010742 0.010285714641213417
vt 0.9893983006477356 0.27141717076301575
vt 1 0
vt 0.97349566221237183 0.27141717076301575
vt 0.94699138402938843 0.27141717076301575
vt 0.94699138402938843 0.26113146543502808
vt 0.96289396286010742 0.26113146543502808
vt 0.9893983006477356 3.9436512389023903E-10
vn -3.7691934267058969E-05 1 5.8363987420761987E-08
vn -3.7691934267058969E-05 1 5.8363987420761987E-08
vn -3.7691934267058969E-05 1 5.8363987420761987E-08
vn -3.7691934267058969E-05 1 5.8363987420761987E-08
vn 2.009748641285114E-05 0.065507374703884125 0.99785208702087402
vn 2.009748641285114E-05 0.065507374703884125 0.99785208702087402
vn 2.009748641285114E-05 0.065507374703884125 0.99785208702087402
vn 2.009748641285114E-05 0.065507374703884125 0.99785208702087402
vn -3.7691934267058969E-05 1 0
vn -3.7691934267058969E-05 1 0
vn -3.7691934267058969E-05 1 0
vn -3.7691934267058969E-05 1 0
vn 2.2615162379224785E-05 0 1
vn 2.2615162379224785E-05 0 1
vn 2.2615162379224785E-05 0 1
vn 2.2615162379224785E-05 0 1
vn 3.7691934267058969E-05 -1 0
vn 3.7691934267058969E-05 -1 0
vn 3.7691934267058969E-05 -1 0
vn 3.7691934267058969E-05 -1 0
vn -2.0194278476992622E-05 -0.063034944236278534 -0.99801129102706909
vn -2.0194278476992622E-05 -0.063034944236278534 -0.99801129102706909
vn -2.0194278476992622E-05 -0.063034944236278534 -0.99801129102706909
vn -2.0194278476992622E-05 -0.063034944236278534 -0.99801129102706909
vn -1 -3.7691934267058969E-05 2.2615162379224785E-05
vn -1 -3.7691934267058969E-05 2.2615162379224785E-05
vn -1 -3.7691934267058969E-05 2.2615162379224785E-05
vn -1 -3.7691934267058969E-05 2.2615162379224785E-05
vn -1 -3.7691934267058969E-05 2.2615162379224785E-05
vn -1 -3.7691934267058969E-05 2.2615162379224785E-05
vn 1 3.7691934267058969E-05 -2.2615162379224785E-05
vn 1 3.7691934267058969E-05 -2.2615162379224785E-05
vn 1 3.7691934267058969E-05 -2.2615162379224785E-05
vn 1 3.7691934267058969E-05 -2.2615162379224785E-05
vn 1 3.7691934267058969E-05 -2.2615162379224785E-05
vn 1 3.7691934267058969E-05 -2.2615162379224785E-05
vn -2.0194278476992622E-05 0.063034944236278534 -0.99801129102706909
vn -2.0194278476992622E-05 0.063034944236278534 -0.99801129102706909
vn -2.0194278476992622E-05 0.063034944236278534 -0.99801129102706909
vn -2.0194278476992622E-05 0.063034944236278534 -0.99801129102706909
vn 3.7691934267058969E-05 1 0
vn 3.7691934267058969E-05 1 0
vn 3.7691934267058969E-05 1 0
vn 3.7691934267058969E-05 1 0
vn 2.2615162379224785E-05 0 1
vn 2.2615162379224785E-05 0 1
vn 2.2615162379224785E-05 0 1
vn 2.2615162379224785E-05 0 1
vn -3.7691934267058969E-05 -1 0
vn -3.7691934267058969E-05 -1 0
vn -3.7691934267058969E-05 -1 0
vn -3.7691934267058969E-05 -1 0
vn 2.009748641285114E-05 -0.065507374703884125 0.99785208702087402
vn 2.009748641285114E-05 -0.065507374703884125 0.99785208702087402
vn 2.009748641285114E-05 -0.065507374703884125 0.99785208702087402
vn 2.009748641285114E-05 -0.065507374703884125 0.99785208702087402
vn -3.7691934267058969E-05 -1 5.8363987420761987E-08
vn -3.7691934267058969E-05 -1 5.8363987420761987E-08
vn -3.7691934267058969E-05 -1 5.8363987420761987E-08
vn -3.7691934267058969E-05 -1 5.8363987420761987E-08
vn -1 3.7691934267058969E-05 2.2615162379224785E-05
vn -1 3.7691934267058969E-05 2.2615162379224785E-05
vn -1 3.7691934267058969E-05 2.2615162379224785E-05
vn -1 3.7691934267058969E-05 2.2615162379224785E-05
vn -1 3.7691934267058969E-05 2.2615162379224785E-05
vn -1 3.7691934267058969E-05 2.2615162379224785E-05
vn 1 -3.7691934267058969E-05 -2.2615162379224785E-05
vn 1 -3.7691934267058969E-05 -2.2615162379224785E-05
vn 1 -3.7691934267058969E-05 -2.2615162379224785E-05
vn 1 -3.7691934267058969E-05 -2.2615162379224785E-05
vn 1 -3.7691934267058969E-05 -2.2615162379224785E-05
vn 1 -3.7691934267058969E-05 -2.2615162379224785E-05
f 1/1/1 3/3/3 4/4/4 2/2/2
f 5/5/5 7/7/7 8/8/8 6/6/6
f 9/9/9 11/11/11 12/12/12 10/10/10
f 13/13/13 15/15/15 16/16/16 14/14/14
f 17/17/17 19/19/19 20/20/20 18/18/18
f 21/21/21 23/23/23 24/24/24 22/22/22
f 29/29/29 27/27/27 30/30/30
f 25/25/25 30/30/30 27/27/27
f 28/28/28 27/27/27 29/29/29
f 25/25/25 27/27/27 26/26/26
f 35/35/35 36/36/36 33/33/33
f 31/31/31 33/33/33 36/36/36
f 34/34/34 35/35/35 33/33/33
f 31/31/31 32/32/32 33/33/33
f 37/37/37 39/39/39 40/40/40 38/38/38
f 41/41/41 43/43/43 44/44/44 42/42/42
f 45/45/45 47/47/47 48/48/48 46/46/46
f 49/49/49 51/51/51 52/52/52 50/50/50
f 53/53/53 55/55/55 56/56/56 54/54/54
f 57/57/57 59/59/59 60/60/60 58/58/58
f 61/61/61 66/66/66 65/65/65
f 63/63/63 62/62/62 65/65/65
f 61/61/61 65/65/65 62/62/62
f 64/64/64 63/63/63 65/65/65
f 67/67/67 71/71/71 72/72/72
f 69/69/69 71/71/71 68/68/68
f 67/67/67 68/68/68 71/71/71
f 70/70/70 71/71/71 69/69/69
