v -2.237609 -0.38833967 0.14142136
v -1.954766 -0.38833967 0.14142136
v -2.0961874 -0.38833967 0.14142136
v -2.0254767 -0.28833964 0.07071068
v -2.0961874 -0.18833965 2.1342967E-09
v -2.166898 -0.28833964 0.07071068
v -1.954766 -0.38833967 0.14142136
v -1.954766 -0.38833967 -0.14142135
v -2.0961874 -0.18833965 2.1342967E-09
v -2.0254767 -0.28833964 0.07071068
v -1.954766 -0.38833967 2.1342967E-09
v -2.0254767 -0.28833964 -0.070710674
v -1.954766 -0.38833967 -0.14142135
v -2.237609 -0.38833967 -0.14142135
v -2.0961874 -0.18833965 2.1342967E-09
v -2.0254767 -0.28833964 -0.070710674
v -2.0961874 -0.38833967 -0.14142135
v -2.166898 -0.28833964 -0.070710674
v -2.237609 -0.38833967 -0.14142135
v -2.237609 -0.38833967 0.14142136
v -2.166898 -0.28833964 0.07071068
v -2.0961874 -0.18833965 2.1342967E-09
v -2.166898 -0.28833964 -0.070710674
v -2.237609 -0.38833967 2.1342967E-09
v -2.237609 -0.38833967 0.14142136
v -2.0961874 -0.38833967 0.14142136
v -1.954766 -0.38833967 0.14142136
v -1.954766 -0.38833967 2.1342967E-09
v -1.954766 -0.38833967 -0.14142135
v -2.0961874 -0.38833967 -0.14142135
v -2.237609 -0.38833967 -0.14142135
v -2.237609 -0.38833967 2.1342967E-09
v 1.7623912 -0.38833967 0.14142136
v 2.045234 -0.38833967 0.14142136
v 1.9038125 -0.38833967 0.14142136
v 1.9745232 -0.28833964 0.07071068
v 1.9038125 -0.18833965 2.1342967E-09
v 1.8331019 -0.28833964 0.07071068
v 2.045234 -0.38833967 0.14142136
v 2.045234 -0.38833967 -0.14142135
v 1.9038125 -0.18833965 2.1342967E-09
v 1.9745232 -0.28833964 0.07071068
v 2.045234 -0.38833967 2.1342967E-09
v 1.9745232 -0.28833964 -0.070710674
v 2.045234 -0.38833967 -0.14142135
v 1.7623912 -0.38833967 -0.14142135
v 1.9038125 -0.18833965 2.1342967E-09
v 1.9745232 -0.28833964 -0.070710674
v 1.9038125 -0.38833967 -0.14142135
v 1.8331019 -0.28833964 -0.070710674
v 1.7623912 -0.38833967 -0.14142135
v 1.7623912 -0.38833967 0.14142136
v 1.8331019 -0.28833964 0.07071068
v 1.9038125 -0.18833965 2.1342967E-09
v 1.8331019 -0.28833964 -0.070710674
v 1.7623912 -0.38833967 2.1342967E-09
v 1.7623912 -0.38833967 0.14142136
v 1.9038125 -0.38833967 0.14142136
v 2.045234 -0.38833967 0.14142136
v 2.045234 -0.38833967 2.1342967E-09
v 2.045234 -0.38833967 -0.14142135
v 1.9038125 -0.38833967 -0.14142135
v 1.7623912 -0.38833967 -0.14142135
v 1.7623912 -0.38833967 2.1342967E-09
vt 0.723280 0.317837
vt 0.723280 0.634210
vt 0.723280 0.476023
vt 0.586385 0.555117
vt 0.449490 0.476023
vt 0.586385 0.396930
vt 0.723280 0.000000
vt 0.723280 0.316372
vt 0.449490 0.158186
vt 0.586385 0.079093
vt 0.723280 0.158186
vt 0.586385 0.237279
vt 0.998535 0.000000
vt 0.998535 0.316372
vt 0.724745 0.158186
vt 0.861640 0.079093
vt 0.998535 0.158186
vt 0.861640 0.237279
vt 0.998535 0.317837
vt 0.998535 0.634210
vt 0.861640 0.555117
vt 0.724745 0.476023
vt 0.861640 0.396930
vt 0.998535 0.476023
vt 0.448025 0.224745
vt 0.336019 0.337117
vt 0.224012 0.449490
vt 0.112006 0.337117
vt 0.000000 0.224745
vt 0.112006 0.112372
vt 0.224012 0.000000
vt 0.336019 0.112372
vt 0.998535 0.317837
vt 0.998535 0.634210
vt 0.998535 0.476023
vt 0.861640 0.555117
vt 0.724745 0.476023
vt 0.861640 0.396930
vt 0.998535 0.000000
vt 0.998535 0.316372
vt 0.724745 0.158186
vt 0.861640 0.079093
vt 0.998535 0.158186
vt 0.861640 0.237279
vt 0.723280 0.000000
vt 0.723280 0.316372
vt 0.449490 0.158186
vt 0.586385 0.079093
vt 0.723280 0.158186
vt 0.586385 0.237279
vt 0.723280 0.317837
vt 0.723280 0.634210
vt 0.586385 0.555117
vt 0.449490 0.476023
vt 0.586385 0.396930
vt 0.723280 0.476023
vt 0.448025 0.224745
vt 0.336019 0.337117
vt 0.224012 0.449490
vt 0.112006 0.337117
vt 0.000000 0.224745
vt 0.112006 0.112372
vt 0.224012 0.000000
vt 0.336019 0.112372
vn -4.3322175E-17 0.57735026 0.8164966
vn -4.3322175E-17 0.57735026 0.8164966
vn -9.0649334E-17 0.57735026 0.8164966
vn -9.0649334E-17 0.57735026 0.8164966
vn -9.0649334E-17 0.57735026 0.8164966
vn -9.0649334E-17 0.57735026 0.8164966
vn 0.8164966 0.57735026 3.7179386E-16
vn 0.8164966 0.57735026 3.7179386E-16
vn 0.8164966 0.57735026 0
vn 0.8164966 0.57735026 0
vn 0.8164966 0.57735026 0
vn 0.8164966 0.57735026 0
vn 4.5723672E-17 0.57735026 -0.8164966
vn 4.5723672E-17 0.57735026 -0.8164966
vn 9.0649334E-17 0.57735026 -0.8164966
vn 9.0649334E-17 0.57735026 -0.8164966
vn 9.0649334E-17 0.57735026 -0.8164966
vn 9.0649334E-17 0.57735026 -0.8164966
vn -0.8164966 0.57735026 1.4429794E-16
vn -0.8164966 0.57735026 1.4429794E-16
vn -0.8164966 0.57735026 -9.0649334E-17
vn -0.8164966 0.57735026 -9.0649334E-17
vn -0.8164966 0.57735026 -9.0649334E-17
vn -0.8164966 0.57735026 -9.0649334E-17
vn 0 -1 0
vn 0 -1 0
vn 0 -1 0
vn 0 -1 0
vn 0 -1 0
vn 0 -1 0
vn 0 -1 0
vn 0 -1 0
vn -4.3322175E-17 0.57735026 0.8164966
vn -4.3322175E-17 0.57735026 0.8164966
vn -9.0649334E-17 0.57735026 0.8164966
vn -9.0649334E-17 0.57735026 0.8164966
vn -9.0649334E-17 0.57735026 0.8164966
vn -9.0649334E-17 0.57735026 0.8164966
vn 0.8164966 0.57735026 3.2485863E-16
vn 0.8164966 0.57735026 3.2485863E-16
vn 0.8164966 0.57735026 0
vn 0.8164966 0.57735026 0
vn 0.8164966 0.57735026 0
vn 0.8164966 0.57735026 0
vn 4.5723672E-17 0.57735026 -0.8164966
vn 4.5723672E-17 0.57735026 -0.8164966
vn 9.0649334E-17 0.57735026 -0.8164966
vn 9.0649334E-17 0.57735026 -0.8164966
vn 9.0649334E-17 0.57735026 -0.8164966
vn 9.0649334E-17 0.57735026 -0.8164966
vn -0.8164966 0.57735026 -3.6727235E-16
vn -0.8164966 0.57735026 -3.6727235E-16
vn -0.8164966 0.57735026 -9.0649334E-17
vn -0.8164966 0.57735026 -9.0649334E-17
vn -0.8164966 0.57735026 -9.0649334E-17
vn -0.8164966 0.57735026 -9.0649334E-17
vn 0 -1 0
vn 0 -1 0
vn 0 -1 0
vn 0 -1 0
vn 0 -1 0
vn 0 -1 0
vn 0 -1 0
vn 0 -1 0

g supports0
f 6/6/6 1/1/1 3/3/3
f 4/4/4 6/6/6 3/3/3
f 5/5/5 6/6/6 4/4/4
f 2/2/2 4/4/4 3/3/3
f 10/10/10 7/7/7 11/11/11
f 12/12/12 10/10/10 11/11/11
f 10/10/10 12/12/12 9/9/9
f 11/11/11 8/8/8 12/12/12
f 17/17/17 16/16/16 13/13/13
f 18/18/18 15/15/15 16/16/16
f 18/18/18 17/17/17 14/14/14
f 16/16/16 17/17/17 18/18/18
f 22/22/22 23/23/23 21/21/21
f 19/19/19 24/24/24 23/23/23
f 21/21/21 24/24/24 20/20/20
f 23/23/23 24/24/24 21/21/21
f 32/32/32 30/30/30 28/28/28
f 30/30/30 29/29/29 28/28/28
f 32/32/32 31/31/31 30/30/30
f 26/26/26 25/25/25 32/32/32
f 26/26/26 28/28/28 27/27/27
f 32/32/32 28/28/28 26/26/26
f 37/37/37 38/38/38 36/36/36
f 33/33/33 35/35/35 38/38/38
f 36/36/36 35/35/35 34/34/34
f 38/38/38 35/35/35 36/36/36
f 42/42/42 39/39/39 43/43/43
f 44/44/44 42/42/42 43/43/43
f 42/42/42 44/44/44 41/41/41
f 43/43/43 40/40/40 44/44/44
f 48/48/48 45/45/45 49/49/49
f 50/50/50 48/48/48 49/49/49
f 48/48/48 50/50/50 47/47/47
f 49/49/49 46/46/46 50/50/50
f 51/51/51 56/56/56 55/55/55
f 53/53/53 54/54/54 55/55/55
f 53/53/53 56/56/56 52/52/52
f 64/64/64 62/62/62 60/60/60
f 62/62/62 61/61/61 60/60/60
f 64/64/64 63/63/63 62/62/62
f 58/58/58 57/57/57 64/64/64
f 58/58/58 60/60/60 59/59/59
f 64/64/64 60/60/60 58/58/58
f 56/56/56 53/53/53 55/55/55
