v 2.2376089096069336 0.1414213627576828 -0.38833966851234436
v 1.9547660350799561 0.1414213627576828 -0.38833966851234436
v 2.0961873531341553 0.1414213627576828 -0.38833966851234436
v 2.0254766941070557 0.0707106813788414 -0.28833964467048645
v 2.0961873531341553 2.1342967393422896E-09 -0.18833965063095093
v 2.1668980121612549 0.0707106813788414 -0.28833964467048645
v 1.9547660350799561 0.1414213627576828 -0.38833966851234436
v 1.9547660350799561 -0.14142134785652161 -0.38833966851234436
v 2.0961873531341553 2.1342967393422896E-09 -0.18833965063095093
v 2.0254766941070557 0.0707106813788414 -0.28833964467048645
v 1.9547660350799561 2.1342967393422896E-09 -0.38833966851234436
v 2.0254766941070557 -0.070710673928260803 -0.28833964467048645
v 1.9547660350799561 -0.14142134785652161 -0.38833966851234436
v 2.2376089096069336 -0.14142134785652161 -0.38833966851234436
v 2.0961873531341553 2.1342967393422896E-09 -0.18833965063095093
v 2.0254766941070557 -0.070710673928260803 -0.28833964467048645
v 2.0961873531341553 -0.14142134785652161 -0.38833966851234436
v 2.1668980121612549 -0.070710673928260803 -0.28833964467048645
v 2.2376089096069336 -0.14142134785652161 -0.38833966851234436
v 2.2376089096069336 0.1414213627576828 -0.38833966851234436
v 2.1668980121612549 0.0707106813788414 -0.28833964467048645
v 2.0961873531341553 2.1342967393422896E-09 -0.18833965063095093
v 2.1668980121612549 -0.070710673928260803 -0.28833964467048645
v 2.2376089096069336 2.1342967393422896E-09 -0.38833966851234436
v 2.2376089096069336 0.1414213627576828 -0.38833966851234436
v 2.0961873531341553 0.1414213627576828 -0.38833966851234436
v 1.9547660350799561 0.1414213627576828 -0.38833966851234436
v 1.9547660350799561 2.1342967393422896E-09 -0.38833966851234436
v 1.9547660350799561 -0.14142134785652161 -0.38833966851234436
v 2.0961873531341553 -0.14142134785652161 -0.38833966851234436
v 2.2376089096069336 -0.14142134785652161 -0.38833966851234436
v 2.2376089096069336 2.1342967393422896E-09 -0.38833966851234436
v -1.762391209602356 0.1414213627576828 -0.38833966851234436
v -2.0452339649200439 0.1414213627576828 -0.38833966851234436
v -1.9038125276565552 0.1414213627576828 -0.38833966851234436
v -1.9745231866836548 0.0707106813788414 -0.28833964467048645
v -1.9038125276565552 2.1342967393422896E-09 -0.18833965063095093
v -1.8331018686294556 0.0707106813788414 -0.28833964467048645
v -2.0452339649200439 0.1414213627576828 -0.38833966851234436
v -2.0452339649200439 -0.14142134785652161 -0.38833966851234436
v -1.9038125276565552 2.1342967393422896E-09 -0.18833965063095093
v -1.9745231866836548 0.0707106813788414 -0.28833964467048645
v -2.0452339649200439 2.1342967393422896E-09 -0.38833966851234436
v -1.9745231866836548 -0.070710673928260803 -0.28833964467048645
v -2.0452339649200439 -0.14142134785652161 -0.38833966851234436
v -1.762391209602356 -0.14142134785652161 -0.38833966851234436
v -1.9038125276565552 2.1342967393422896E-09 -0.18833965063095093
v -1.9745231866836548 -0.070710673928260803 -0.28833964467048645
v -1.9038125276565552 -0.14142134785652161 -0.38833966851234436
v -1.8331018686294556 -0.070710673928260803 -0.28833964467048645
v -1.762391209602356 -0.14142134785652161 -0.38833966851234436
v -1.762391209602356 0.1414213627576828 -0.38833966851234436
v -1.8331018686294556 0.0707106813788414 -0.28833964467048645
v -1.9038125276565552 2.1342967393422896E-09 -0.18833965063095093
v -1.8331018686294556 -0.070710673928260803 -0.28833964467048645
v -1.762391209602356 2.1342967393422896E-09 -0.38833966851234436
v -1.762391209602356 0.1414213627576828 -0.38833966851234436
v -1.9038125276565552 0.1414213627576828 -0.38833966851234436
v -2.0452339649200439 0.1414213627576828 -0.38833966851234436
v -2.0452339649200439 2.1342967393422896E-09 -0.38833966851234436
v -2.0452339649200439 -0.14142134785652161 -0.38833966851234436
v -1.9038125276565552 -0.14142134785652161 -0.38833966851234436
v -1.762391209602356 -0.14142134785652161 -0.38833966851234436
v -1.762391209602356 2.1342967393422896E-09 -0.38833966851234436
vt 0.72328001260757446 0.31783723831176758
vt 0.72328001260757446 0.63420963287353516
vt 0.72328001260757446 0.47602343559265137
vt 0.58638489246368408 0.55511653423309326
vt 0.44948974251747131 0.47602343559265137
vt 0.58638489246368408 0.39693033695220947
vt 0.72328001260757446 0
vt 0.72328001260757446 0.31637239456176758
vt 0.44948974251747131 0.15818619728088379
vt 0.58638489246368408 0.079093098640441895
vt 0.72328001260757446 0.15818619728088379
vt 0.58638489246368408 0.23727929592132568
vt 0.99853515625 0
vt 0.99853515625 0.31637239456176758
vt 0.72474485635757446 0.15818619728088379
vt 0.86164003610610962 0.079093098640441895
vt 0.99853515625 0.15818619728088379
vt 0.86164003610610962 0.23727929592132568
vt 0.99853515625 0.31783723831176758
vt 0.99853515625 0.63420963287353516
vt 0.86164003610610962 0.55511653423309326
vt 0.72474485635757446 0.47602343559265137
vt 0.86164003610610962 0.39693033695220947
vt 0.99853515625 0.47602343559265137
vt 0.44802489876747131 0.22474487125873566
vt 0.33601868152618408 0.33711731433868408
vt 0.22401244938373566 0.44948974251747131
vt 0.11200622469186783 0.33711731433868408
vt 0 0.22474487125873566
vt 0.11200622469186783 0.11237243562936783
vt 0.22401244938373566 0
vt 0.33601868152618408 0.11237243562936783
vt 0.99853515625 0.31783723831176758
vt 0.99853515625 0.63420963287353516
vt 0.99853515625 0.47602343559265137
vt 0.86164003610610962 0.55511653423309326
vt 0.72474485635757446 0.47602343559265137
vt 0.86164003610610962 0.39693033695220947
vt 0.99853515625 0
vt 0.99853515625 0.31637239456176758
vt 0.72474485635757446 0.15818619728088379
vt 0.86164003610610962 0.079093098640441895
vt 0.99853515625 0.15818619728088379
vt 0.86164003610610962 0.23727929592132568
vt 0.72328001260757446 0
vt 0.72328001260757446 0.31637239456176758
vt 0.44948974251747131 0.15818619728088379
vt 0.58638489246368408 0.079093098640441895
vt 0.72328001260757446 0.15818619728088379
vt 0.58638489246368408 0.23727929592132568
vt 0.72328001260757446 0.31783723831176758
vt 0.72328001260757446 0.63420963287353516
vt 0.58638489246368408 0.55511653423309326
vt 0.44948974251747131 0.47602343559265137
vt 0.58638489246368408 0.39693033695220947
vt 0.72328001260757446 0.47602343559265137
vt 0.44802489876747131 0.22474487125873566
vt 0.33601868152618408 0.33711731433868408
vt 0.22401244938373566 0.44948974251747131
vt 0.11200622469186783 0.33711731433868408
vt 0 0.22474487125873566
vt 0.11200622469186783 0.11237243562936783
vt 0.22401244938373566 0
vt 0.33601868152618408 0.11237243562936783
vn 0 0.81649661064147949 0.57735025882720947
vn 0 0.81649661064147949 0.57735025882720947
vn 0 0.81649661064147949 0.57735025882720947
vn 0 0.81649661064147949 0.57735025882720947
vn 0 0.81649661064147949 0.57735025882720947
vn 0 0.81649661064147949 0.57735025882720947
vn -0.81649661064147949 0 0.57735025882720947
vn -0.81649661064147949 0 0.57735025882720947
vn -0.81649661064147949 0 0.57735025882720947
vn -0.81649661064147949 0 0.57735025882720947
vn -0.81649661064147949 0 0.57735025882720947
vn -0.81649661064147949 0 0.57735025882720947
vn 0 -0.81649661064147949 0.57735025882720947
vn 0 -0.81649661064147949 0.57735025882720947
vn 0 -0.81649661064147949 0.57735025882720947
vn 0 -0.81649661064147949 0.57735025882720947
vn 0 -0.81649661064147949 0.57735025882720947
vn 0 -0.81649661064147949 0.57735025882720947
vn 0.81649661064147949 0 0.57735025882720947
vn 0.81649661064147949 0 0.57735025882720947
vn 0.81649661064147949 0 0.57735025882720947
vn 0.81649661064147949 0 0.57735025882720947
vn 0.81649661064147949 0 0.57735025882720947
vn 0.81649661064147949 0 0.57735025882720947
vn 0 0 -1
vn 0 0 -1
vn 0 0 -1
vn 0 0 -1
vn 0 0 -1
vn 0 0 -1
vn 0 0 -1
vn 0 0 -1
vn 0 0.81649661064147949 0.57735025882720947
vn 0 0.81649661064147949 0.57735025882720947
vn 0 0.81649661064147949 0.57735025882720947
vn 0 0.81649661064147949 0.57735025882720947
vn 0 0.81649661064147949 0.57735025882720947
vn 0 0.81649661064147949 0.57735025882720947
vn -0.81649661064147949 0 0.57735025882720947
vn -0.81649661064147949 0 0.57735025882720947
vn -0.81649661064147949 0 0.57735025882720947
vn -0.81649661064147949 0 0.57735025882720947
vn -0.81649661064147949 0 0.57735025882720947
vn -0.81649661064147949 0 0.57735025882720947
vn 0 -0.81649661064147949 0.57735025882720947
vn 0 -0.81649661064147949 0.57735025882720947
vn 0 -0.81649661064147949 0.57735025882720947
vn 0 -0.81649661064147949 0.57735025882720947
vn 0 -0.81649661064147949 0.57735025882720947
vn 0 -0.81649661064147949 0.57735025882720947
vn 0.81649661064147949 0 0.57735025882720947
vn 0.81649661064147949 0 0.57735025882720947
vn 0.81649661064147949 0 0.57735025882720947
vn 0.81649661064147949 0 0.57735025882720947
vn 0.81649661064147949 0 0.57735025882720947
vn 0.81649661064147949 0 0.57735025882720947
vn 0 0 -1
vn 0 0 -1
vn 0 0 -1
vn 0 0 -1
vn 0 0 -1
vn 0 0 -1
vn 0 0 -1
vn 0 0 -1
f 6/6/6 1/1/1 3/3/3
f 4/4/4 6/6/6 3/3/3
f 5/5/5 6/6/6 4/4/4
f 2/2/2 4/4/4 3/3/3
f 10/10/10 7/7/7 11/11/11
f 12/12/12 10/10/10 11/11/11
f 10/10/10 12/12/12 9/9/9
f 11/11/11 8/8/8 12/12/12
f 17/17/17 16/16/16 13/13/13
f 18/18/18 15/15/15 16/16/16
f 18/18/18 17/17/17 14/14/14
f 16/16/16 17/17/17 18/18/18
f 22/22/22 23/23/23 21/21/21
f 19/19/19 24/24/24 23/23/23
f 21/21/21 24/24/24 20/20/20
f 23/23/23 24/24/24 21/21/21
f 32/32/32 30/30/30 28/28/28
f 30/30/30 29/29/29 28/28/28
f 32/32/32 31/31/31 30/30/30
f 26/26/26 25/25/25 32/32/32
f 26/26/26 28/28/28 27/27/27
f 32/32/32 28/28/28 26/26/26
f 37/37/37 38/38/38 36/36/36
f 33/33/33 35/35/35 38/38/38
f 36/36/36 35/35/35 34/34/34
f 38/38/38 35/35/35 36/36/36
f 42/42/42 39/39/39 43/43/43
f 44/44/44 42/42/42 43/43/43
f 42/42/42 44/44/44 41/41/41
f 43/43/43 40/40/40 44/44/44
f 48/48/48 45/45/45 49/49/49
f 50/50/50 48/48/48 49/49/49
f 48/48/48 50/50/50 47/47/47
f 49/49/49 46/46/46 50/50/50
f 51/51/51 56/56/56 53/53/53 55/55/55
f 53/53/53 54/54/54 55/55/55
f 53/53/53 56/56/56 52/52/52
f 64/64/64 62/62/62 60/60/60
f 62/62/62 61/61/61 60/60/60
f 64/64/64 63/63/63 62/62/62
f 58/58/58 57/57/57 64/64/64
f 58/58/58 60/60/60 59/59/59
f 64/64/64 60/60/60 58/58/58
